%
M48
M72
T01C0.02362
T02C0.03346
T03C0.03740
T04C0.05118
T05C0.12598
%
T01
X261760Y64616
X266760Y64616
X266760Y69616
X266760Y74616
X266760Y79616
X261760Y79616
X261760Y74616
X261760Y69616
X261760Y84616
X266760Y84616
T02
X258760Y13750
X248760Y13750
X238760Y13750
X228760Y13750
X218760Y13750
X208760Y13750
X188760Y13750
X178760Y13750
X168760Y13750
X158760Y13750
X148760Y13750
X138760Y13750
X128760Y13750
X118760Y13750
X122760Y203750
X112760Y203750
X102760Y203750
X92760Y203750
X82760Y203750
X132760Y203750
X142760Y203750
X152760Y203750
X162760Y203750
X172760Y203750
X188760Y203750
X198760Y203750
X208760Y203750
X218760Y203750
X228760Y203750
X238760Y203750
X248760Y203750
X258760Y203750
T03
X259260Y123750
X269260Y123750
X269260Y113750
X259260Y113750
X259260Y103750
X269260Y103750
T04
X39960Y16750
X42960Y16750
X45960Y16750
X54760Y33450
X54760Y36450
X54760Y39450
X31160Y39450
X31160Y36450
X31160Y33450
T05
X63760Y13750
X268760Y33750
X268760Y143750
X68760Y203750
M30
