G75*
%MOIN*%
%OFA0B0*%
%FSLAX25Y25*%
%IPPOS*%
%LPD*%
%AMOC8*
5,1,8,0,0,1.08239X$1,22.5*
%
%ADD10C,0.00000*%
%ADD11OC8,0.06102*%
%ADD12C,0.05600*%
%ADD13C,0.00748*%
%ADD14R,0.11811X0.05512*%
%ADD15OC8,0.15748*%
%ADD16R,0.15748X0.15748*%
%ADD17C,0.07677*%
%ADD18C,0.01008*%
%ADD19C,0.03937*%
%ADD20C,0.00551*%
%ADD21R,0.05000X0.02500*%
%ADD22R,0.07500X0.08000*%
%ADD23R,0.04724X0.04724*%
%ADD24R,0.04000X0.04000*%
%ADD25C,0.04000*%
%ADD26C,0.00480*%
%ADD27C,0.00866*%
%ADD28R,0.05512X0.11811*%
%ADD29R,0.06300X0.04600*%
%ADD30C,0.00157*%
%ADD31R,0.07480X0.07480*%
%ADD32R,0.06299X0.08268*%
%ADD33R,0.01890X0.02165*%
%ADD34R,0.03465X0.02165*%
%ADD35R,0.06299X0.11811*%
%ADD36C,0.00984*%
%ADD37R,0.05512X0.07087*%
%ADD38C,0.00827*%
D10*
X0008760Y0007687D02*
X0008760Y0209813D01*
X0008762Y0209937D01*
X0008768Y0210060D01*
X0008777Y0210184D01*
X0008791Y0210306D01*
X0008808Y0210429D01*
X0008830Y0210551D01*
X0008855Y0210672D01*
X0008884Y0210792D01*
X0008916Y0210911D01*
X0008953Y0211030D01*
X0008993Y0211147D01*
X0009036Y0211262D01*
X0009084Y0211377D01*
X0009135Y0211489D01*
X0009189Y0211600D01*
X0009247Y0211710D01*
X0009308Y0211817D01*
X0009373Y0211923D01*
X0009441Y0212026D01*
X0009512Y0212127D01*
X0009586Y0212226D01*
X0009663Y0212323D01*
X0009744Y0212417D01*
X0009827Y0212508D01*
X0009913Y0212597D01*
X0010002Y0212683D01*
X0010093Y0212766D01*
X0010187Y0212847D01*
X0010284Y0212924D01*
X0010383Y0212998D01*
X0010484Y0213069D01*
X0010587Y0213137D01*
X0010693Y0213202D01*
X0010800Y0213263D01*
X0010910Y0213321D01*
X0011021Y0213375D01*
X0011133Y0213426D01*
X0011248Y0213474D01*
X0011363Y0213517D01*
X0011480Y0213557D01*
X0011599Y0213594D01*
X0011718Y0213626D01*
X0011838Y0213655D01*
X0011959Y0213680D01*
X0012081Y0213702D01*
X0012204Y0213719D01*
X0012326Y0213733D01*
X0012450Y0213742D01*
X0012573Y0213748D01*
X0012697Y0213750D01*
X0262760Y0213750D01*
X0268760Y0207750D01*
X0268760Y0162750D01*
X0278760Y0152750D01*
X0278760Y0023750D01*
X0268760Y0013750D01*
X0268760Y0007687D01*
X0268758Y0007563D01*
X0268752Y0007440D01*
X0268743Y0007316D01*
X0268729Y0007194D01*
X0268712Y0007071D01*
X0268690Y0006949D01*
X0268665Y0006828D01*
X0268636Y0006708D01*
X0268604Y0006589D01*
X0268567Y0006470D01*
X0268527Y0006353D01*
X0268484Y0006238D01*
X0268436Y0006123D01*
X0268385Y0006011D01*
X0268331Y0005900D01*
X0268273Y0005790D01*
X0268212Y0005683D01*
X0268147Y0005577D01*
X0268079Y0005474D01*
X0268008Y0005373D01*
X0267934Y0005274D01*
X0267857Y0005177D01*
X0267776Y0005083D01*
X0267693Y0004992D01*
X0267607Y0004903D01*
X0267518Y0004817D01*
X0267427Y0004734D01*
X0267333Y0004653D01*
X0267236Y0004576D01*
X0267137Y0004502D01*
X0267036Y0004431D01*
X0266933Y0004363D01*
X0266827Y0004298D01*
X0266720Y0004237D01*
X0266610Y0004179D01*
X0266499Y0004125D01*
X0266387Y0004074D01*
X0266272Y0004026D01*
X0266157Y0003983D01*
X0266040Y0003943D01*
X0265921Y0003906D01*
X0265802Y0003874D01*
X0265682Y0003845D01*
X0265561Y0003820D01*
X0265439Y0003798D01*
X0265316Y0003781D01*
X0265194Y0003767D01*
X0265070Y0003758D01*
X0264947Y0003752D01*
X0264823Y0003750D01*
X0012697Y0003750D01*
X0012573Y0003752D01*
X0012450Y0003758D01*
X0012326Y0003767D01*
X0012204Y0003781D01*
X0012081Y0003798D01*
X0011959Y0003820D01*
X0011838Y0003845D01*
X0011718Y0003874D01*
X0011599Y0003906D01*
X0011480Y0003943D01*
X0011363Y0003983D01*
X0011248Y0004026D01*
X0011133Y0004074D01*
X0011021Y0004125D01*
X0010910Y0004179D01*
X0010800Y0004237D01*
X0010693Y0004298D01*
X0010587Y0004363D01*
X0010484Y0004431D01*
X0010383Y0004502D01*
X0010284Y0004576D01*
X0010187Y0004653D01*
X0010093Y0004734D01*
X0010002Y0004817D01*
X0009913Y0004903D01*
X0009827Y0004992D01*
X0009744Y0005083D01*
X0009663Y0005177D01*
X0009586Y0005274D01*
X0009512Y0005373D01*
X0009441Y0005474D01*
X0009373Y0005577D01*
X0009308Y0005683D01*
X0009247Y0005790D01*
X0009189Y0005900D01*
X0009135Y0006011D01*
X0009084Y0006123D01*
X0009036Y0006238D01*
X0008993Y0006353D01*
X0008953Y0006470D01*
X0008916Y0006589D01*
X0008884Y0006708D01*
X0008855Y0006828D01*
X0008830Y0006949D01*
X0008808Y0007071D01*
X0008791Y0007194D01*
X0008777Y0007316D01*
X0008768Y0007440D01*
X0008762Y0007563D01*
X0008760Y0007687D01*
X0057461Y0013750D02*
X0057463Y0013908D01*
X0057469Y0014066D01*
X0057479Y0014224D01*
X0057493Y0014382D01*
X0057511Y0014539D01*
X0057532Y0014696D01*
X0057558Y0014852D01*
X0057588Y0015008D01*
X0057621Y0015163D01*
X0057659Y0015316D01*
X0057700Y0015469D01*
X0057745Y0015621D01*
X0057794Y0015772D01*
X0057847Y0015921D01*
X0057903Y0016069D01*
X0057963Y0016215D01*
X0058027Y0016360D01*
X0058095Y0016503D01*
X0058166Y0016645D01*
X0058240Y0016785D01*
X0058318Y0016922D01*
X0058400Y0017058D01*
X0058484Y0017192D01*
X0058573Y0017323D01*
X0058664Y0017452D01*
X0058759Y0017579D01*
X0058856Y0017704D01*
X0058957Y0017826D01*
X0059061Y0017945D01*
X0059168Y0018062D01*
X0059278Y0018176D01*
X0059391Y0018287D01*
X0059506Y0018396D01*
X0059624Y0018501D01*
X0059745Y0018603D01*
X0059868Y0018703D01*
X0059994Y0018799D01*
X0060122Y0018892D01*
X0060252Y0018982D01*
X0060385Y0019068D01*
X0060520Y0019152D01*
X0060656Y0019231D01*
X0060795Y0019308D01*
X0060936Y0019380D01*
X0061078Y0019450D01*
X0061222Y0019515D01*
X0061368Y0019577D01*
X0061515Y0019635D01*
X0061664Y0019690D01*
X0061814Y0019741D01*
X0061965Y0019788D01*
X0062117Y0019831D01*
X0062270Y0019870D01*
X0062425Y0019906D01*
X0062580Y0019937D01*
X0062736Y0019965D01*
X0062892Y0019989D01*
X0063049Y0020009D01*
X0063207Y0020025D01*
X0063364Y0020037D01*
X0063523Y0020045D01*
X0063681Y0020049D01*
X0063839Y0020049D01*
X0063997Y0020045D01*
X0064156Y0020037D01*
X0064313Y0020025D01*
X0064471Y0020009D01*
X0064628Y0019989D01*
X0064784Y0019965D01*
X0064940Y0019937D01*
X0065095Y0019906D01*
X0065250Y0019870D01*
X0065403Y0019831D01*
X0065555Y0019788D01*
X0065706Y0019741D01*
X0065856Y0019690D01*
X0066005Y0019635D01*
X0066152Y0019577D01*
X0066298Y0019515D01*
X0066442Y0019450D01*
X0066584Y0019380D01*
X0066725Y0019308D01*
X0066864Y0019231D01*
X0067000Y0019152D01*
X0067135Y0019068D01*
X0067268Y0018982D01*
X0067398Y0018892D01*
X0067526Y0018799D01*
X0067652Y0018703D01*
X0067775Y0018603D01*
X0067896Y0018501D01*
X0068014Y0018396D01*
X0068129Y0018287D01*
X0068242Y0018176D01*
X0068352Y0018062D01*
X0068459Y0017945D01*
X0068563Y0017826D01*
X0068664Y0017704D01*
X0068761Y0017579D01*
X0068856Y0017452D01*
X0068947Y0017323D01*
X0069036Y0017192D01*
X0069120Y0017058D01*
X0069202Y0016922D01*
X0069280Y0016785D01*
X0069354Y0016645D01*
X0069425Y0016503D01*
X0069493Y0016360D01*
X0069557Y0016215D01*
X0069617Y0016069D01*
X0069673Y0015921D01*
X0069726Y0015772D01*
X0069775Y0015621D01*
X0069820Y0015469D01*
X0069861Y0015316D01*
X0069899Y0015163D01*
X0069932Y0015008D01*
X0069962Y0014852D01*
X0069988Y0014696D01*
X0070009Y0014539D01*
X0070027Y0014382D01*
X0070041Y0014224D01*
X0070051Y0014066D01*
X0070057Y0013908D01*
X0070059Y0013750D01*
X0070057Y0013592D01*
X0070051Y0013434D01*
X0070041Y0013276D01*
X0070027Y0013118D01*
X0070009Y0012961D01*
X0069988Y0012804D01*
X0069962Y0012648D01*
X0069932Y0012492D01*
X0069899Y0012337D01*
X0069861Y0012184D01*
X0069820Y0012031D01*
X0069775Y0011879D01*
X0069726Y0011728D01*
X0069673Y0011579D01*
X0069617Y0011431D01*
X0069557Y0011285D01*
X0069493Y0011140D01*
X0069425Y0010997D01*
X0069354Y0010855D01*
X0069280Y0010715D01*
X0069202Y0010578D01*
X0069120Y0010442D01*
X0069036Y0010308D01*
X0068947Y0010177D01*
X0068856Y0010048D01*
X0068761Y0009921D01*
X0068664Y0009796D01*
X0068563Y0009674D01*
X0068459Y0009555D01*
X0068352Y0009438D01*
X0068242Y0009324D01*
X0068129Y0009213D01*
X0068014Y0009104D01*
X0067896Y0008999D01*
X0067775Y0008897D01*
X0067652Y0008797D01*
X0067526Y0008701D01*
X0067398Y0008608D01*
X0067268Y0008518D01*
X0067135Y0008432D01*
X0067000Y0008348D01*
X0066864Y0008269D01*
X0066725Y0008192D01*
X0066584Y0008120D01*
X0066442Y0008050D01*
X0066298Y0007985D01*
X0066152Y0007923D01*
X0066005Y0007865D01*
X0065856Y0007810D01*
X0065706Y0007759D01*
X0065555Y0007712D01*
X0065403Y0007669D01*
X0065250Y0007630D01*
X0065095Y0007594D01*
X0064940Y0007563D01*
X0064784Y0007535D01*
X0064628Y0007511D01*
X0064471Y0007491D01*
X0064313Y0007475D01*
X0064156Y0007463D01*
X0063997Y0007455D01*
X0063839Y0007451D01*
X0063681Y0007451D01*
X0063523Y0007455D01*
X0063364Y0007463D01*
X0063207Y0007475D01*
X0063049Y0007491D01*
X0062892Y0007511D01*
X0062736Y0007535D01*
X0062580Y0007563D01*
X0062425Y0007594D01*
X0062270Y0007630D01*
X0062117Y0007669D01*
X0061965Y0007712D01*
X0061814Y0007759D01*
X0061664Y0007810D01*
X0061515Y0007865D01*
X0061368Y0007923D01*
X0061222Y0007985D01*
X0061078Y0008050D01*
X0060936Y0008120D01*
X0060795Y0008192D01*
X0060656Y0008269D01*
X0060520Y0008348D01*
X0060385Y0008432D01*
X0060252Y0008518D01*
X0060122Y0008608D01*
X0059994Y0008701D01*
X0059868Y0008797D01*
X0059745Y0008897D01*
X0059624Y0008999D01*
X0059506Y0009104D01*
X0059391Y0009213D01*
X0059278Y0009324D01*
X0059168Y0009438D01*
X0059061Y0009555D01*
X0058957Y0009674D01*
X0058856Y0009796D01*
X0058759Y0009921D01*
X0058664Y0010048D01*
X0058573Y0010177D01*
X0058484Y0010308D01*
X0058400Y0010442D01*
X0058318Y0010578D01*
X0058240Y0010715D01*
X0058166Y0010855D01*
X0058095Y0010997D01*
X0058027Y0011140D01*
X0057963Y0011285D01*
X0057903Y0011431D01*
X0057847Y0011579D01*
X0057794Y0011728D01*
X0057745Y0011879D01*
X0057700Y0012031D01*
X0057659Y0012184D01*
X0057621Y0012337D01*
X0057588Y0012492D01*
X0057558Y0012648D01*
X0057532Y0012804D01*
X0057511Y0012961D01*
X0057493Y0013118D01*
X0057479Y0013276D01*
X0057469Y0013434D01*
X0057463Y0013592D01*
X0057461Y0013750D01*
X0262461Y0033750D02*
X0262463Y0033908D01*
X0262469Y0034066D01*
X0262479Y0034224D01*
X0262493Y0034382D01*
X0262511Y0034539D01*
X0262532Y0034696D01*
X0262558Y0034852D01*
X0262588Y0035008D01*
X0262621Y0035163D01*
X0262659Y0035316D01*
X0262700Y0035469D01*
X0262745Y0035621D01*
X0262794Y0035772D01*
X0262847Y0035921D01*
X0262903Y0036069D01*
X0262963Y0036215D01*
X0263027Y0036360D01*
X0263095Y0036503D01*
X0263166Y0036645D01*
X0263240Y0036785D01*
X0263318Y0036922D01*
X0263400Y0037058D01*
X0263484Y0037192D01*
X0263573Y0037323D01*
X0263664Y0037452D01*
X0263759Y0037579D01*
X0263856Y0037704D01*
X0263957Y0037826D01*
X0264061Y0037945D01*
X0264168Y0038062D01*
X0264278Y0038176D01*
X0264391Y0038287D01*
X0264506Y0038396D01*
X0264624Y0038501D01*
X0264745Y0038603D01*
X0264868Y0038703D01*
X0264994Y0038799D01*
X0265122Y0038892D01*
X0265252Y0038982D01*
X0265385Y0039068D01*
X0265520Y0039152D01*
X0265656Y0039231D01*
X0265795Y0039308D01*
X0265936Y0039380D01*
X0266078Y0039450D01*
X0266222Y0039515D01*
X0266368Y0039577D01*
X0266515Y0039635D01*
X0266664Y0039690D01*
X0266814Y0039741D01*
X0266965Y0039788D01*
X0267117Y0039831D01*
X0267270Y0039870D01*
X0267425Y0039906D01*
X0267580Y0039937D01*
X0267736Y0039965D01*
X0267892Y0039989D01*
X0268049Y0040009D01*
X0268207Y0040025D01*
X0268364Y0040037D01*
X0268523Y0040045D01*
X0268681Y0040049D01*
X0268839Y0040049D01*
X0268997Y0040045D01*
X0269156Y0040037D01*
X0269313Y0040025D01*
X0269471Y0040009D01*
X0269628Y0039989D01*
X0269784Y0039965D01*
X0269940Y0039937D01*
X0270095Y0039906D01*
X0270250Y0039870D01*
X0270403Y0039831D01*
X0270555Y0039788D01*
X0270706Y0039741D01*
X0270856Y0039690D01*
X0271005Y0039635D01*
X0271152Y0039577D01*
X0271298Y0039515D01*
X0271442Y0039450D01*
X0271584Y0039380D01*
X0271725Y0039308D01*
X0271864Y0039231D01*
X0272000Y0039152D01*
X0272135Y0039068D01*
X0272268Y0038982D01*
X0272398Y0038892D01*
X0272526Y0038799D01*
X0272652Y0038703D01*
X0272775Y0038603D01*
X0272896Y0038501D01*
X0273014Y0038396D01*
X0273129Y0038287D01*
X0273242Y0038176D01*
X0273352Y0038062D01*
X0273459Y0037945D01*
X0273563Y0037826D01*
X0273664Y0037704D01*
X0273761Y0037579D01*
X0273856Y0037452D01*
X0273947Y0037323D01*
X0274036Y0037192D01*
X0274120Y0037058D01*
X0274202Y0036922D01*
X0274280Y0036785D01*
X0274354Y0036645D01*
X0274425Y0036503D01*
X0274493Y0036360D01*
X0274557Y0036215D01*
X0274617Y0036069D01*
X0274673Y0035921D01*
X0274726Y0035772D01*
X0274775Y0035621D01*
X0274820Y0035469D01*
X0274861Y0035316D01*
X0274899Y0035163D01*
X0274932Y0035008D01*
X0274962Y0034852D01*
X0274988Y0034696D01*
X0275009Y0034539D01*
X0275027Y0034382D01*
X0275041Y0034224D01*
X0275051Y0034066D01*
X0275057Y0033908D01*
X0275059Y0033750D01*
X0275057Y0033592D01*
X0275051Y0033434D01*
X0275041Y0033276D01*
X0275027Y0033118D01*
X0275009Y0032961D01*
X0274988Y0032804D01*
X0274962Y0032648D01*
X0274932Y0032492D01*
X0274899Y0032337D01*
X0274861Y0032184D01*
X0274820Y0032031D01*
X0274775Y0031879D01*
X0274726Y0031728D01*
X0274673Y0031579D01*
X0274617Y0031431D01*
X0274557Y0031285D01*
X0274493Y0031140D01*
X0274425Y0030997D01*
X0274354Y0030855D01*
X0274280Y0030715D01*
X0274202Y0030578D01*
X0274120Y0030442D01*
X0274036Y0030308D01*
X0273947Y0030177D01*
X0273856Y0030048D01*
X0273761Y0029921D01*
X0273664Y0029796D01*
X0273563Y0029674D01*
X0273459Y0029555D01*
X0273352Y0029438D01*
X0273242Y0029324D01*
X0273129Y0029213D01*
X0273014Y0029104D01*
X0272896Y0028999D01*
X0272775Y0028897D01*
X0272652Y0028797D01*
X0272526Y0028701D01*
X0272398Y0028608D01*
X0272268Y0028518D01*
X0272135Y0028432D01*
X0272000Y0028348D01*
X0271864Y0028269D01*
X0271725Y0028192D01*
X0271584Y0028120D01*
X0271442Y0028050D01*
X0271298Y0027985D01*
X0271152Y0027923D01*
X0271005Y0027865D01*
X0270856Y0027810D01*
X0270706Y0027759D01*
X0270555Y0027712D01*
X0270403Y0027669D01*
X0270250Y0027630D01*
X0270095Y0027594D01*
X0269940Y0027563D01*
X0269784Y0027535D01*
X0269628Y0027511D01*
X0269471Y0027491D01*
X0269313Y0027475D01*
X0269156Y0027463D01*
X0268997Y0027455D01*
X0268839Y0027451D01*
X0268681Y0027451D01*
X0268523Y0027455D01*
X0268364Y0027463D01*
X0268207Y0027475D01*
X0268049Y0027491D01*
X0267892Y0027511D01*
X0267736Y0027535D01*
X0267580Y0027563D01*
X0267425Y0027594D01*
X0267270Y0027630D01*
X0267117Y0027669D01*
X0266965Y0027712D01*
X0266814Y0027759D01*
X0266664Y0027810D01*
X0266515Y0027865D01*
X0266368Y0027923D01*
X0266222Y0027985D01*
X0266078Y0028050D01*
X0265936Y0028120D01*
X0265795Y0028192D01*
X0265656Y0028269D01*
X0265520Y0028348D01*
X0265385Y0028432D01*
X0265252Y0028518D01*
X0265122Y0028608D01*
X0264994Y0028701D01*
X0264868Y0028797D01*
X0264745Y0028897D01*
X0264624Y0028999D01*
X0264506Y0029104D01*
X0264391Y0029213D01*
X0264278Y0029324D01*
X0264168Y0029438D01*
X0264061Y0029555D01*
X0263957Y0029674D01*
X0263856Y0029796D01*
X0263759Y0029921D01*
X0263664Y0030048D01*
X0263573Y0030177D01*
X0263484Y0030308D01*
X0263400Y0030442D01*
X0263318Y0030578D01*
X0263240Y0030715D01*
X0263166Y0030855D01*
X0263095Y0030997D01*
X0263027Y0031140D01*
X0262963Y0031285D01*
X0262903Y0031431D01*
X0262847Y0031579D01*
X0262794Y0031728D01*
X0262745Y0031879D01*
X0262700Y0032031D01*
X0262659Y0032184D01*
X0262621Y0032337D01*
X0262588Y0032492D01*
X0262558Y0032648D01*
X0262532Y0032804D01*
X0262511Y0032961D01*
X0262493Y0033118D01*
X0262479Y0033276D01*
X0262469Y0033434D01*
X0262463Y0033592D01*
X0262461Y0033750D01*
X0262461Y0143750D02*
X0262463Y0143908D01*
X0262469Y0144066D01*
X0262479Y0144224D01*
X0262493Y0144382D01*
X0262511Y0144539D01*
X0262532Y0144696D01*
X0262558Y0144852D01*
X0262588Y0145008D01*
X0262621Y0145163D01*
X0262659Y0145316D01*
X0262700Y0145469D01*
X0262745Y0145621D01*
X0262794Y0145772D01*
X0262847Y0145921D01*
X0262903Y0146069D01*
X0262963Y0146215D01*
X0263027Y0146360D01*
X0263095Y0146503D01*
X0263166Y0146645D01*
X0263240Y0146785D01*
X0263318Y0146922D01*
X0263400Y0147058D01*
X0263484Y0147192D01*
X0263573Y0147323D01*
X0263664Y0147452D01*
X0263759Y0147579D01*
X0263856Y0147704D01*
X0263957Y0147826D01*
X0264061Y0147945D01*
X0264168Y0148062D01*
X0264278Y0148176D01*
X0264391Y0148287D01*
X0264506Y0148396D01*
X0264624Y0148501D01*
X0264745Y0148603D01*
X0264868Y0148703D01*
X0264994Y0148799D01*
X0265122Y0148892D01*
X0265252Y0148982D01*
X0265385Y0149068D01*
X0265520Y0149152D01*
X0265656Y0149231D01*
X0265795Y0149308D01*
X0265936Y0149380D01*
X0266078Y0149450D01*
X0266222Y0149515D01*
X0266368Y0149577D01*
X0266515Y0149635D01*
X0266664Y0149690D01*
X0266814Y0149741D01*
X0266965Y0149788D01*
X0267117Y0149831D01*
X0267270Y0149870D01*
X0267425Y0149906D01*
X0267580Y0149937D01*
X0267736Y0149965D01*
X0267892Y0149989D01*
X0268049Y0150009D01*
X0268207Y0150025D01*
X0268364Y0150037D01*
X0268523Y0150045D01*
X0268681Y0150049D01*
X0268839Y0150049D01*
X0268997Y0150045D01*
X0269156Y0150037D01*
X0269313Y0150025D01*
X0269471Y0150009D01*
X0269628Y0149989D01*
X0269784Y0149965D01*
X0269940Y0149937D01*
X0270095Y0149906D01*
X0270250Y0149870D01*
X0270403Y0149831D01*
X0270555Y0149788D01*
X0270706Y0149741D01*
X0270856Y0149690D01*
X0271005Y0149635D01*
X0271152Y0149577D01*
X0271298Y0149515D01*
X0271442Y0149450D01*
X0271584Y0149380D01*
X0271725Y0149308D01*
X0271864Y0149231D01*
X0272000Y0149152D01*
X0272135Y0149068D01*
X0272268Y0148982D01*
X0272398Y0148892D01*
X0272526Y0148799D01*
X0272652Y0148703D01*
X0272775Y0148603D01*
X0272896Y0148501D01*
X0273014Y0148396D01*
X0273129Y0148287D01*
X0273242Y0148176D01*
X0273352Y0148062D01*
X0273459Y0147945D01*
X0273563Y0147826D01*
X0273664Y0147704D01*
X0273761Y0147579D01*
X0273856Y0147452D01*
X0273947Y0147323D01*
X0274036Y0147192D01*
X0274120Y0147058D01*
X0274202Y0146922D01*
X0274280Y0146785D01*
X0274354Y0146645D01*
X0274425Y0146503D01*
X0274493Y0146360D01*
X0274557Y0146215D01*
X0274617Y0146069D01*
X0274673Y0145921D01*
X0274726Y0145772D01*
X0274775Y0145621D01*
X0274820Y0145469D01*
X0274861Y0145316D01*
X0274899Y0145163D01*
X0274932Y0145008D01*
X0274962Y0144852D01*
X0274988Y0144696D01*
X0275009Y0144539D01*
X0275027Y0144382D01*
X0275041Y0144224D01*
X0275051Y0144066D01*
X0275057Y0143908D01*
X0275059Y0143750D01*
X0275057Y0143592D01*
X0275051Y0143434D01*
X0275041Y0143276D01*
X0275027Y0143118D01*
X0275009Y0142961D01*
X0274988Y0142804D01*
X0274962Y0142648D01*
X0274932Y0142492D01*
X0274899Y0142337D01*
X0274861Y0142184D01*
X0274820Y0142031D01*
X0274775Y0141879D01*
X0274726Y0141728D01*
X0274673Y0141579D01*
X0274617Y0141431D01*
X0274557Y0141285D01*
X0274493Y0141140D01*
X0274425Y0140997D01*
X0274354Y0140855D01*
X0274280Y0140715D01*
X0274202Y0140578D01*
X0274120Y0140442D01*
X0274036Y0140308D01*
X0273947Y0140177D01*
X0273856Y0140048D01*
X0273761Y0139921D01*
X0273664Y0139796D01*
X0273563Y0139674D01*
X0273459Y0139555D01*
X0273352Y0139438D01*
X0273242Y0139324D01*
X0273129Y0139213D01*
X0273014Y0139104D01*
X0272896Y0138999D01*
X0272775Y0138897D01*
X0272652Y0138797D01*
X0272526Y0138701D01*
X0272398Y0138608D01*
X0272268Y0138518D01*
X0272135Y0138432D01*
X0272000Y0138348D01*
X0271864Y0138269D01*
X0271725Y0138192D01*
X0271584Y0138120D01*
X0271442Y0138050D01*
X0271298Y0137985D01*
X0271152Y0137923D01*
X0271005Y0137865D01*
X0270856Y0137810D01*
X0270706Y0137759D01*
X0270555Y0137712D01*
X0270403Y0137669D01*
X0270250Y0137630D01*
X0270095Y0137594D01*
X0269940Y0137563D01*
X0269784Y0137535D01*
X0269628Y0137511D01*
X0269471Y0137491D01*
X0269313Y0137475D01*
X0269156Y0137463D01*
X0268997Y0137455D01*
X0268839Y0137451D01*
X0268681Y0137451D01*
X0268523Y0137455D01*
X0268364Y0137463D01*
X0268207Y0137475D01*
X0268049Y0137491D01*
X0267892Y0137511D01*
X0267736Y0137535D01*
X0267580Y0137563D01*
X0267425Y0137594D01*
X0267270Y0137630D01*
X0267117Y0137669D01*
X0266965Y0137712D01*
X0266814Y0137759D01*
X0266664Y0137810D01*
X0266515Y0137865D01*
X0266368Y0137923D01*
X0266222Y0137985D01*
X0266078Y0138050D01*
X0265936Y0138120D01*
X0265795Y0138192D01*
X0265656Y0138269D01*
X0265520Y0138348D01*
X0265385Y0138432D01*
X0265252Y0138518D01*
X0265122Y0138608D01*
X0264994Y0138701D01*
X0264868Y0138797D01*
X0264745Y0138897D01*
X0264624Y0138999D01*
X0264506Y0139104D01*
X0264391Y0139213D01*
X0264278Y0139324D01*
X0264168Y0139438D01*
X0264061Y0139555D01*
X0263957Y0139674D01*
X0263856Y0139796D01*
X0263759Y0139921D01*
X0263664Y0140048D01*
X0263573Y0140177D01*
X0263484Y0140308D01*
X0263400Y0140442D01*
X0263318Y0140578D01*
X0263240Y0140715D01*
X0263166Y0140855D01*
X0263095Y0140997D01*
X0263027Y0141140D01*
X0262963Y0141285D01*
X0262903Y0141431D01*
X0262847Y0141579D01*
X0262794Y0141728D01*
X0262745Y0141879D01*
X0262700Y0142031D01*
X0262659Y0142184D01*
X0262621Y0142337D01*
X0262588Y0142492D01*
X0262558Y0142648D01*
X0262532Y0142804D01*
X0262511Y0142961D01*
X0262493Y0143118D01*
X0262479Y0143276D01*
X0262469Y0143434D01*
X0262463Y0143592D01*
X0262461Y0143750D01*
X0062461Y0203750D02*
X0062463Y0203908D01*
X0062469Y0204066D01*
X0062479Y0204224D01*
X0062493Y0204382D01*
X0062511Y0204539D01*
X0062532Y0204696D01*
X0062558Y0204852D01*
X0062588Y0205008D01*
X0062621Y0205163D01*
X0062659Y0205316D01*
X0062700Y0205469D01*
X0062745Y0205621D01*
X0062794Y0205772D01*
X0062847Y0205921D01*
X0062903Y0206069D01*
X0062963Y0206215D01*
X0063027Y0206360D01*
X0063095Y0206503D01*
X0063166Y0206645D01*
X0063240Y0206785D01*
X0063318Y0206922D01*
X0063400Y0207058D01*
X0063484Y0207192D01*
X0063573Y0207323D01*
X0063664Y0207452D01*
X0063759Y0207579D01*
X0063856Y0207704D01*
X0063957Y0207826D01*
X0064061Y0207945D01*
X0064168Y0208062D01*
X0064278Y0208176D01*
X0064391Y0208287D01*
X0064506Y0208396D01*
X0064624Y0208501D01*
X0064745Y0208603D01*
X0064868Y0208703D01*
X0064994Y0208799D01*
X0065122Y0208892D01*
X0065252Y0208982D01*
X0065385Y0209068D01*
X0065520Y0209152D01*
X0065656Y0209231D01*
X0065795Y0209308D01*
X0065936Y0209380D01*
X0066078Y0209450D01*
X0066222Y0209515D01*
X0066368Y0209577D01*
X0066515Y0209635D01*
X0066664Y0209690D01*
X0066814Y0209741D01*
X0066965Y0209788D01*
X0067117Y0209831D01*
X0067270Y0209870D01*
X0067425Y0209906D01*
X0067580Y0209937D01*
X0067736Y0209965D01*
X0067892Y0209989D01*
X0068049Y0210009D01*
X0068207Y0210025D01*
X0068364Y0210037D01*
X0068523Y0210045D01*
X0068681Y0210049D01*
X0068839Y0210049D01*
X0068997Y0210045D01*
X0069156Y0210037D01*
X0069313Y0210025D01*
X0069471Y0210009D01*
X0069628Y0209989D01*
X0069784Y0209965D01*
X0069940Y0209937D01*
X0070095Y0209906D01*
X0070250Y0209870D01*
X0070403Y0209831D01*
X0070555Y0209788D01*
X0070706Y0209741D01*
X0070856Y0209690D01*
X0071005Y0209635D01*
X0071152Y0209577D01*
X0071298Y0209515D01*
X0071442Y0209450D01*
X0071584Y0209380D01*
X0071725Y0209308D01*
X0071864Y0209231D01*
X0072000Y0209152D01*
X0072135Y0209068D01*
X0072268Y0208982D01*
X0072398Y0208892D01*
X0072526Y0208799D01*
X0072652Y0208703D01*
X0072775Y0208603D01*
X0072896Y0208501D01*
X0073014Y0208396D01*
X0073129Y0208287D01*
X0073242Y0208176D01*
X0073352Y0208062D01*
X0073459Y0207945D01*
X0073563Y0207826D01*
X0073664Y0207704D01*
X0073761Y0207579D01*
X0073856Y0207452D01*
X0073947Y0207323D01*
X0074036Y0207192D01*
X0074120Y0207058D01*
X0074202Y0206922D01*
X0074280Y0206785D01*
X0074354Y0206645D01*
X0074425Y0206503D01*
X0074493Y0206360D01*
X0074557Y0206215D01*
X0074617Y0206069D01*
X0074673Y0205921D01*
X0074726Y0205772D01*
X0074775Y0205621D01*
X0074820Y0205469D01*
X0074861Y0205316D01*
X0074899Y0205163D01*
X0074932Y0205008D01*
X0074962Y0204852D01*
X0074988Y0204696D01*
X0075009Y0204539D01*
X0075027Y0204382D01*
X0075041Y0204224D01*
X0075051Y0204066D01*
X0075057Y0203908D01*
X0075059Y0203750D01*
X0075057Y0203592D01*
X0075051Y0203434D01*
X0075041Y0203276D01*
X0075027Y0203118D01*
X0075009Y0202961D01*
X0074988Y0202804D01*
X0074962Y0202648D01*
X0074932Y0202492D01*
X0074899Y0202337D01*
X0074861Y0202184D01*
X0074820Y0202031D01*
X0074775Y0201879D01*
X0074726Y0201728D01*
X0074673Y0201579D01*
X0074617Y0201431D01*
X0074557Y0201285D01*
X0074493Y0201140D01*
X0074425Y0200997D01*
X0074354Y0200855D01*
X0074280Y0200715D01*
X0074202Y0200578D01*
X0074120Y0200442D01*
X0074036Y0200308D01*
X0073947Y0200177D01*
X0073856Y0200048D01*
X0073761Y0199921D01*
X0073664Y0199796D01*
X0073563Y0199674D01*
X0073459Y0199555D01*
X0073352Y0199438D01*
X0073242Y0199324D01*
X0073129Y0199213D01*
X0073014Y0199104D01*
X0072896Y0198999D01*
X0072775Y0198897D01*
X0072652Y0198797D01*
X0072526Y0198701D01*
X0072398Y0198608D01*
X0072268Y0198518D01*
X0072135Y0198432D01*
X0072000Y0198348D01*
X0071864Y0198269D01*
X0071725Y0198192D01*
X0071584Y0198120D01*
X0071442Y0198050D01*
X0071298Y0197985D01*
X0071152Y0197923D01*
X0071005Y0197865D01*
X0070856Y0197810D01*
X0070706Y0197759D01*
X0070555Y0197712D01*
X0070403Y0197669D01*
X0070250Y0197630D01*
X0070095Y0197594D01*
X0069940Y0197563D01*
X0069784Y0197535D01*
X0069628Y0197511D01*
X0069471Y0197491D01*
X0069313Y0197475D01*
X0069156Y0197463D01*
X0068997Y0197455D01*
X0068839Y0197451D01*
X0068681Y0197451D01*
X0068523Y0197455D01*
X0068364Y0197463D01*
X0068207Y0197475D01*
X0068049Y0197491D01*
X0067892Y0197511D01*
X0067736Y0197535D01*
X0067580Y0197563D01*
X0067425Y0197594D01*
X0067270Y0197630D01*
X0067117Y0197669D01*
X0066965Y0197712D01*
X0066814Y0197759D01*
X0066664Y0197810D01*
X0066515Y0197865D01*
X0066368Y0197923D01*
X0066222Y0197985D01*
X0066078Y0198050D01*
X0065936Y0198120D01*
X0065795Y0198192D01*
X0065656Y0198269D01*
X0065520Y0198348D01*
X0065385Y0198432D01*
X0065252Y0198518D01*
X0065122Y0198608D01*
X0064994Y0198701D01*
X0064868Y0198797D01*
X0064745Y0198897D01*
X0064624Y0198999D01*
X0064506Y0199104D01*
X0064391Y0199213D01*
X0064278Y0199324D01*
X0064168Y0199438D01*
X0064061Y0199555D01*
X0063957Y0199674D01*
X0063856Y0199796D01*
X0063759Y0199921D01*
X0063664Y0200048D01*
X0063573Y0200177D01*
X0063484Y0200308D01*
X0063400Y0200442D01*
X0063318Y0200578D01*
X0063240Y0200715D01*
X0063166Y0200855D01*
X0063095Y0200997D01*
X0063027Y0201140D01*
X0062963Y0201285D01*
X0062903Y0201431D01*
X0062847Y0201579D01*
X0062794Y0201728D01*
X0062745Y0201879D01*
X0062700Y0202031D01*
X0062659Y0202184D01*
X0062621Y0202337D01*
X0062588Y0202492D01*
X0062558Y0202648D01*
X0062532Y0202804D01*
X0062511Y0202961D01*
X0062493Y0203118D01*
X0062479Y0203276D01*
X0062469Y0203434D01*
X0062463Y0203592D01*
X0062461Y0203750D01*
D11*
X0259260Y0123750D03*
X0269260Y0123750D03*
X0269260Y0113750D03*
X0259260Y0113750D03*
X0259260Y0103750D03*
X0269260Y0103750D03*
D12*
X0258760Y0016550D02*
X0258760Y0010950D01*
X0248760Y0010950D02*
X0248760Y0016550D01*
X0238760Y0016550D02*
X0238760Y0010950D01*
X0228760Y0010950D02*
X0228760Y0016550D01*
X0218760Y0016550D02*
X0218760Y0010950D01*
X0208760Y0010950D02*
X0208760Y0016550D01*
X0188760Y0016550D02*
X0188760Y0010950D01*
X0178760Y0010950D02*
X0178760Y0016550D01*
X0168760Y0016550D02*
X0168760Y0010950D01*
X0158760Y0010950D02*
X0158760Y0016550D01*
X0148760Y0016550D02*
X0148760Y0010950D01*
X0138760Y0010950D02*
X0138760Y0016550D01*
X0128760Y0016550D02*
X0128760Y0010950D01*
X0118760Y0010950D02*
X0118760Y0016550D01*
X0122760Y0200950D02*
X0122760Y0206550D01*
X0112760Y0206550D02*
X0112760Y0200950D01*
X0102760Y0200950D02*
X0102760Y0206550D01*
X0092760Y0206550D02*
X0092760Y0200950D01*
X0082760Y0200950D02*
X0082760Y0206550D01*
X0132760Y0206550D02*
X0132760Y0200950D01*
X0142760Y0200950D02*
X0142760Y0206550D01*
X0152760Y0206550D02*
X0152760Y0200950D01*
X0162760Y0200950D02*
X0162760Y0206550D01*
X0172760Y0206550D02*
X0172760Y0200950D01*
X0188760Y0200950D02*
X0188760Y0206550D01*
X0198760Y0206550D02*
X0198760Y0200950D01*
X0208760Y0200950D02*
X0208760Y0206550D01*
X0218760Y0206550D02*
X0218760Y0200950D01*
X0228760Y0200950D02*
X0228760Y0206550D01*
X0238760Y0206550D02*
X0238760Y0200950D01*
X0248760Y0200950D02*
X0248760Y0206550D01*
X0258760Y0206550D02*
X0258760Y0200950D01*
D13*
X0238954Y0125610D02*
X0235766Y0125610D01*
X0235766Y0128602D01*
X0238954Y0128602D01*
X0238954Y0125610D01*
X0238954Y0126357D02*
X0235766Y0126357D01*
X0235766Y0127104D02*
X0238954Y0127104D01*
X0238954Y0127851D02*
X0235766Y0127851D01*
X0235766Y0128598D02*
X0238954Y0128598D01*
X0238954Y0119311D02*
X0235766Y0119311D01*
X0235766Y0122303D01*
X0238954Y0122303D01*
X0238954Y0119311D01*
X0238954Y0120058D02*
X0235766Y0120058D01*
X0235766Y0120805D02*
X0238954Y0120805D01*
X0238954Y0121552D02*
X0235766Y0121552D01*
X0235766Y0122299D02*
X0238954Y0122299D01*
X0231254Y0119311D02*
X0228066Y0119311D01*
X0228066Y0122303D01*
X0231254Y0122303D01*
X0231254Y0119311D01*
X0231254Y0120058D02*
X0228066Y0120058D01*
X0228066Y0120805D02*
X0231254Y0120805D01*
X0231254Y0121552D02*
X0228066Y0121552D01*
X0228066Y0122299D02*
X0231254Y0122299D01*
X0231254Y0125610D02*
X0228066Y0125610D01*
X0228066Y0128602D01*
X0231254Y0128602D01*
X0231254Y0125610D01*
X0231254Y0126357D02*
X0228066Y0126357D01*
X0228066Y0127104D02*
X0231254Y0127104D01*
X0231254Y0127851D02*
X0228066Y0127851D01*
X0228066Y0128598D02*
X0231254Y0128598D01*
X0188650Y0083622D02*
X0188650Y0080434D01*
X0185658Y0080434D01*
X0185658Y0083622D01*
X0188650Y0083622D01*
X0188650Y0081181D02*
X0185658Y0081181D01*
X0185658Y0081928D02*
X0188650Y0081928D01*
X0188650Y0082675D02*
X0185658Y0082675D01*
X0185658Y0083422D02*
X0188650Y0083422D01*
X0182350Y0083622D02*
X0182350Y0080434D01*
X0179358Y0080434D01*
X0179358Y0083622D01*
X0182350Y0083622D01*
X0182350Y0081181D02*
X0179358Y0081181D01*
X0179358Y0081928D02*
X0182350Y0081928D01*
X0182350Y0082675D02*
X0179358Y0082675D01*
X0179358Y0083422D02*
X0182350Y0083422D01*
X0204717Y0067557D02*
X0207905Y0067557D01*
X0204717Y0067557D02*
X0204717Y0070549D01*
X0207905Y0070549D01*
X0207905Y0067557D01*
X0207905Y0068304D02*
X0204717Y0068304D01*
X0204717Y0069051D02*
X0207905Y0069051D01*
X0207905Y0069798D02*
X0204717Y0069798D01*
X0204717Y0070545D02*
X0207905Y0070545D01*
X0207905Y0061258D02*
X0204717Y0061258D01*
X0204717Y0064250D01*
X0207905Y0064250D01*
X0207905Y0061258D01*
X0207905Y0062005D02*
X0204717Y0062005D01*
X0204717Y0062752D02*
X0207905Y0062752D01*
X0207905Y0063499D02*
X0204717Y0063499D01*
X0204717Y0064246D02*
X0207905Y0064246D01*
X0114354Y0172726D02*
X0111166Y0172726D01*
X0111166Y0175718D01*
X0114354Y0175718D01*
X0114354Y0172726D01*
X0114354Y0173473D02*
X0111166Y0173473D01*
X0111166Y0174220D02*
X0114354Y0174220D01*
X0114354Y0174967D02*
X0111166Y0174967D01*
X0111166Y0175714D02*
X0114354Y0175714D01*
X0114354Y0179026D02*
X0111166Y0179026D01*
X0111166Y0182018D01*
X0114354Y0182018D01*
X0114354Y0179026D01*
X0114354Y0179773D02*
X0111166Y0179773D01*
X0111166Y0180520D02*
X0114354Y0180520D01*
X0114354Y0181267D02*
X0111166Y0181267D01*
X0111166Y0182014D02*
X0114354Y0182014D01*
X0034254Y0183196D02*
X0031066Y0183196D01*
X0034254Y0183196D02*
X0034254Y0180204D01*
X0031066Y0180204D01*
X0031066Y0183196D01*
X0031066Y0180951D02*
X0034254Y0180951D01*
X0034254Y0181698D02*
X0031066Y0181698D01*
X0031066Y0182445D02*
X0034254Y0182445D01*
X0034254Y0183192D02*
X0031066Y0183192D01*
X0031066Y0176896D02*
X0034254Y0176896D01*
X0034254Y0173904D01*
X0031066Y0173904D01*
X0031066Y0176896D01*
X0031066Y0174651D02*
X0034254Y0174651D01*
X0034254Y0175398D02*
X0031066Y0175398D01*
X0031066Y0176145D02*
X0034254Y0176145D01*
X0034254Y0176892D02*
X0031066Y0176892D01*
X0011354Y0152392D02*
X0011354Y0145660D01*
X0011354Y0152392D02*
X0018086Y0152392D01*
X0018086Y0145660D01*
X0011354Y0145660D01*
X0011354Y0146407D02*
X0018086Y0146407D01*
X0018086Y0147154D02*
X0011354Y0147154D01*
X0011354Y0147901D02*
X0018086Y0147901D01*
X0018086Y0148648D02*
X0011354Y0148648D01*
X0011354Y0149395D02*
X0018086Y0149395D01*
X0018086Y0150142D02*
X0011354Y0150142D01*
X0011354Y0150889D02*
X0018086Y0150889D01*
X0018086Y0151636D02*
X0011354Y0151636D01*
X0011354Y0152383D02*
X0018086Y0152383D01*
X0011354Y0140777D02*
X0011354Y0134045D01*
X0011354Y0140777D02*
X0018086Y0140777D01*
X0018086Y0134045D01*
X0011354Y0134045D01*
X0011354Y0134792D02*
X0018086Y0134792D01*
X0018086Y0135539D02*
X0011354Y0135539D01*
X0011354Y0136286D02*
X0018086Y0136286D01*
X0018086Y0137033D02*
X0011354Y0137033D01*
X0011354Y0137780D02*
X0018086Y0137780D01*
X0018086Y0138527D02*
X0011354Y0138527D01*
X0011354Y0139274D02*
X0018086Y0139274D01*
X0018086Y0140021D02*
X0011354Y0140021D01*
X0011354Y0140768D02*
X0018086Y0140768D01*
D14*
X0149235Y0089752D03*
X0168133Y0089752D03*
X0095843Y0038289D03*
X0076945Y0038289D03*
D15*
X0054760Y0036450D03*
X0042960Y0016750D03*
D16*
X0031160Y0036450D03*
D17*
X0031160Y0033450D03*
X0031160Y0039450D03*
X0054760Y0039450D03*
X0054760Y0033450D03*
X0045960Y0016750D03*
X0039960Y0016750D03*
D18*
X0187555Y0115249D02*
X0189893Y0115249D01*
X0189893Y0114997D01*
X0187555Y0114997D01*
X0187555Y0115249D01*
X0187555Y0117218D02*
X0189893Y0117218D01*
X0189893Y0116966D01*
X0187555Y0116966D01*
X0187555Y0117218D01*
X0187555Y0119186D02*
X0189893Y0119186D01*
X0189893Y0118934D01*
X0187555Y0118934D01*
X0187555Y0119186D01*
X0187555Y0121155D02*
X0189893Y0121155D01*
X0189893Y0120903D01*
X0187555Y0120903D01*
X0187555Y0121155D01*
X0187555Y0123123D02*
X0189893Y0123123D01*
X0189893Y0122871D01*
X0187555Y0122871D01*
X0187555Y0123123D01*
X0187555Y0125092D02*
X0189893Y0125092D01*
X0189893Y0124840D01*
X0187555Y0124840D01*
X0187555Y0125092D01*
X0187555Y0127060D02*
X0189893Y0127060D01*
X0189893Y0126808D01*
X0187555Y0126808D01*
X0187555Y0127060D01*
X0187555Y0129029D02*
X0189893Y0129029D01*
X0189893Y0128777D01*
X0187555Y0128777D01*
X0187555Y0129029D01*
X0187555Y0130997D02*
X0189893Y0130997D01*
X0189893Y0130745D01*
X0187555Y0130745D01*
X0187555Y0130997D01*
X0187555Y0132966D02*
X0189893Y0132966D01*
X0189893Y0132714D01*
X0187555Y0132714D01*
X0187555Y0132966D01*
X0187555Y0134934D02*
X0189893Y0134934D01*
X0189893Y0134682D01*
X0187555Y0134682D01*
X0187555Y0134934D01*
X0187555Y0136903D02*
X0189893Y0136903D01*
X0189893Y0136651D01*
X0187555Y0136651D01*
X0187555Y0136903D01*
X0194854Y0141612D02*
X0194854Y0143950D01*
X0194854Y0141612D02*
X0194602Y0141612D01*
X0194602Y0143950D01*
X0194854Y0143950D01*
X0194854Y0142619D02*
X0194602Y0142619D01*
X0194602Y0143626D02*
X0194854Y0143626D01*
X0196823Y0143950D02*
X0196823Y0141612D01*
X0196571Y0141612D01*
X0196571Y0143950D01*
X0196823Y0143950D01*
X0196823Y0142619D02*
X0196571Y0142619D01*
X0196571Y0143626D02*
X0196823Y0143626D01*
X0198791Y0143950D02*
X0198791Y0141612D01*
X0198539Y0141612D01*
X0198539Y0143950D01*
X0198791Y0143950D01*
X0198791Y0142619D02*
X0198539Y0142619D01*
X0198539Y0143626D02*
X0198791Y0143626D01*
X0200760Y0143950D02*
X0200760Y0141612D01*
X0200508Y0141612D01*
X0200508Y0143950D01*
X0200760Y0143950D01*
X0200760Y0142619D02*
X0200508Y0142619D01*
X0200508Y0143626D02*
X0200760Y0143626D01*
X0202728Y0143950D02*
X0202728Y0141612D01*
X0202476Y0141612D01*
X0202476Y0143950D01*
X0202728Y0143950D01*
X0202728Y0142619D02*
X0202476Y0142619D01*
X0202476Y0143626D02*
X0202728Y0143626D01*
X0204697Y0143950D02*
X0204697Y0141612D01*
X0204445Y0141612D01*
X0204445Y0143950D01*
X0204697Y0143950D01*
X0204697Y0142619D02*
X0204445Y0142619D01*
X0204445Y0143626D02*
X0204697Y0143626D01*
X0206665Y0143950D02*
X0206665Y0141612D01*
X0206413Y0141612D01*
X0206413Y0143950D01*
X0206665Y0143950D01*
X0206665Y0142619D02*
X0206413Y0142619D01*
X0206413Y0143626D02*
X0206665Y0143626D01*
X0208634Y0143950D02*
X0208634Y0141612D01*
X0208382Y0141612D01*
X0208382Y0143950D01*
X0208634Y0143950D01*
X0208634Y0142619D02*
X0208382Y0142619D01*
X0208382Y0143626D02*
X0208634Y0143626D01*
X0210602Y0143950D02*
X0210602Y0141612D01*
X0210350Y0141612D01*
X0210350Y0143950D01*
X0210602Y0143950D01*
X0210602Y0142619D02*
X0210350Y0142619D01*
X0210350Y0143626D02*
X0210602Y0143626D01*
X0212571Y0143950D02*
X0212571Y0141612D01*
X0212319Y0141612D01*
X0212319Y0143950D01*
X0212571Y0143950D01*
X0212571Y0142619D02*
X0212319Y0142619D01*
X0212319Y0143626D02*
X0212571Y0143626D01*
X0214539Y0143950D02*
X0214539Y0141612D01*
X0214287Y0141612D01*
X0214287Y0143950D01*
X0214539Y0143950D01*
X0214539Y0142619D02*
X0214287Y0142619D01*
X0214287Y0143626D02*
X0214539Y0143626D01*
X0216508Y0143950D02*
X0216508Y0141612D01*
X0216256Y0141612D01*
X0216256Y0143950D01*
X0216508Y0143950D01*
X0216508Y0142619D02*
X0216256Y0142619D01*
X0216256Y0143626D02*
X0216508Y0143626D01*
X0221217Y0136903D02*
X0223555Y0136903D01*
X0223555Y0136651D01*
X0221217Y0136651D01*
X0221217Y0136903D01*
X0221217Y0134934D02*
X0223555Y0134934D01*
X0223555Y0134682D01*
X0221217Y0134682D01*
X0221217Y0134934D01*
X0221217Y0132966D02*
X0223555Y0132966D01*
X0223555Y0132714D01*
X0221217Y0132714D01*
X0221217Y0132966D01*
X0221217Y0130997D02*
X0223555Y0130997D01*
X0223555Y0130745D01*
X0221217Y0130745D01*
X0221217Y0130997D01*
X0221217Y0129029D02*
X0223555Y0129029D01*
X0223555Y0128777D01*
X0221217Y0128777D01*
X0221217Y0129029D01*
X0221217Y0127060D02*
X0223555Y0127060D01*
X0223555Y0126808D01*
X0221217Y0126808D01*
X0221217Y0127060D01*
X0221217Y0125092D02*
X0223555Y0125092D01*
X0223555Y0124840D01*
X0221217Y0124840D01*
X0221217Y0125092D01*
X0221217Y0123123D02*
X0223555Y0123123D01*
X0223555Y0122871D01*
X0221217Y0122871D01*
X0221217Y0123123D01*
X0221217Y0121155D02*
X0223555Y0121155D01*
X0223555Y0120903D01*
X0221217Y0120903D01*
X0221217Y0121155D01*
X0221217Y0119186D02*
X0223555Y0119186D01*
X0223555Y0118934D01*
X0221217Y0118934D01*
X0221217Y0119186D01*
X0221217Y0117218D02*
X0223555Y0117218D01*
X0223555Y0116966D01*
X0221217Y0116966D01*
X0221217Y0117218D01*
X0221217Y0115249D02*
X0223555Y0115249D01*
X0223555Y0114997D01*
X0221217Y0114997D01*
X0221217Y0115249D01*
X0216508Y0110288D02*
X0216508Y0107950D01*
X0216256Y0107950D01*
X0216256Y0110288D01*
X0216508Y0110288D01*
X0216508Y0108957D02*
X0216256Y0108957D01*
X0216256Y0109964D02*
X0216508Y0109964D01*
X0214539Y0110288D02*
X0214539Y0107950D01*
X0214287Y0107950D01*
X0214287Y0110288D01*
X0214539Y0110288D01*
X0214539Y0108957D02*
X0214287Y0108957D01*
X0214287Y0109964D02*
X0214539Y0109964D01*
X0212571Y0110288D02*
X0212571Y0107950D01*
X0212319Y0107950D01*
X0212319Y0110288D01*
X0212571Y0110288D01*
X0212571Y0108957D02*
X0212319Y0108957D01*
X0212319Y0109964D02*
X0212571Y0109964D01*
X0210602Y0110288D02*
X0210602Y0107950D01*
X0210350Y0107950D01*
X0210350Y0110288D01*
X0210602Y0110288D01*
X0210602Y0108957D02*
X0210350Y0108957D01*
X0210350Y0109964D02*
X0210602Y0109964D01*
X0208634Y0110288D02*
X0208634Y0107950D01*
X0208382Y0107950D01*
X0208382Y0110288D01*
X0208634Y0110288D01*
X0208634Y0108957D02*
X0208382Y0108957D01*
X0208382Y0109964D02*
X0208634Y0109964D01*
X0206665Y0110288D02*
X0206665Y0107950D01*
X0206413Y0107950D01*
X0206413Y0110288D01*
X0206665Y0110288D01*
X0206665Y0108957D02*
X0206413Y0108957D01*
X0206413Y0109964D02*
X0206665Y0109964D01*
X0204697Y0110288D02*
X0204697Y0107950D01*
X0204445Y0107950D01*
X0204445Y0110288D01*
X0204697Y0110288D01*
X0204697Y0108957D02*
X0204445Y0108957D01*
X0204445Y0109964D02*
X0204697Y0109964D01*
X0202728Y0110288D02*
X0202728Y0107950D01*
X0202476Y0107950D01*
X0202476Y0110288D01*
X0202728Y0110288D01*
X0202728Y0108957D02*
X0202476Y0108957D01*
X0202476Y0109964D02*
X0202728Y0109964D01*
X0200760Y0110288D02*
X0200760Y0107950D01*
X0200508Y0107950D01*
X0200508Y0110288D01*
X0200760Y0110288D01*
X0200760Y0108957D02*
X0200508Y0108957D01*
X0200508Y0109964D02*
X0200760Y0109964D01*
X0198791Y0110288D02*
X0198791Y0107950D01*
X0198539Y0107950D01*
X0198539Y0110288D01*
X0198791Y0110288D01*
X0198791Y0108957D02*
X0198539Y0108957D01*
X0198539Y0109964D02*
X0198791Y0109964D01*
X0196823Y0110288D02*
X0196823Y0107950D01*
X0196571Y0107950D01*
X0196571Y0110288D01*
X0196823Y0110288D01*
X0196823Y0108957D02*
X0196571Y0108957D01*
X0196571Y0109964D02*
X0196823Y0109964D01*
X0194854Y0110288D02*
X0194854Y0107950D01*
X0194602Y0107950D01*
X0194602Y0110288D01*
X0194854Y0110288D01*
X0194854Y0108957D02*
X0194602Y0108957D01*
X0194602Y0109964D02*
X0194854Y0109964D01*
D19*
X0205555Y0125950D03*
D20*
X0229994Y0111759D02*
X0229994Y0109357D01*
X0227788Y0109357D01*
X0227788Y0111759D01*
X0229994Y0111759D01*
X0229994Y0109907D02*
X0227788Y0109907D01*
X0227788Y0110457D02*
X0229994Y0110457D01*
X0229994Y0111007D02*
X0227788Y0111007D01*
X0227788Y0111557D02*
X0229994Y0111557D01*
X0233931Y0111759D02*
X0233931Y0109357D01*
X0231725Y0109357D01*
X0231725Y0111759D01*
X0233931Y0111759D01*
X0233931Y0109907D02*
X0231725Y0109907D01*
X0231725Y0110457D02*
X0233931Y0110457D01*
X0233931Y0111007D02*
X0231725Y0111007D01*
X0231725Y0111557D02*
X0233931Y0111557D01*
X0237059Y0109116D02*
X0239461Y0109116D01*
X0237059Y0109116D02*
X0237059Y0111322D01*
X0239461Y0111322D01*
X0239461Y0109116D01*
X0239461Y0109666D02*
X0237059Y0109666D01*
X0237059Y0110216D02*
X0239461Y0110216D01*
X0239461Y0110766D02*
X0237059Y0110766D01*
X0237059Y0111316D02*
X0239461Y0111316D01*
X0239461Y0105178D02*
X0237059Y0105178D01*
X0237059Y0107384D01*
X0239461Y0107384D01*
X0239461Y0105178D01*
X0239461Y0105728D02*
X0237059Y0105728D01*
X0237059Y0106278D02*
X0239461Y0106278D01*
X0239461Y0106828D02*
X0237059Y0106828D01*
X0237059Y0107378D02*
X0239461Y0107378D01*
X0233831Y0107959D02*
X0233831Y0105557D01*
X0231625Y0105557D01*
X0231625Y0107959D01*
X0233831Y0107959D01*
X0233831Y0106107D02*
X0231625Y0106107D01*
X0231625Y0106657D02*
X0233831Y0106657D01*
X0233831Y0107207D02*
X0231625Y0107207D01*
X0231625Y0107757D02*
X0233831Y0107757D01*
X0229894Y0107959D02*
X0229894Y0105557D01*
X0227688Y0105557D01*
X0227688Y0107959D01*
X0229894Y0107959D01*
X0229894Y0106107D02*
X0227688Y0106107D01*
X0227688Y0106657D02*
X0229894Y0106657D01*
X0229894Y0107207D02*
X0227688Y0107207D01*
X0227688Y0107757D02*
X0229894Y0107757D01*
X0231594Y0115952D02*
X0231594Y0118354D01*
X0231594Y0115952D02*
X0229388Y0115952D01*
X0229388Y0118354D01*
X0231594Y0118354D01*
X0231594Y0116502D02*
X0229388Y0116502D01*
X0229388Y0117052D02*
X0231594Y0117052D01*
X0231594Y0117602D02*
X0229388Y0117602D01*
X0229388Y0118152D02*
X0231594Y0118152D01*
X0235531Y0118354D02*
X0235531Y0115952D01*
X0233325Y0115952D01*
X0233325Y0118354D01*
X0235531Y0118354D01*
X0235531Y0116502D02*
X0233325Y0116502D01*
X0233325Y0117052D02*
X0235531Y0117052D01*
X0235531Y0117602D02*
X0233325Y0117602D01*
X0233325Y0118152D02*
X0235531Y0118152D01*
X0234761Y0120885D02*
X0232359Y0120885D01*
X0232359Y0123091D01*
X0234761Y0123091D01*
X0234761Y0120885D01*
X0234761Y0121435D02*
X0232359Y0121435D01*
X0232359Y0121985D02*
X0234761Y0121985D01*
X0234761Y0122535D02*
X0232359Y0122535D01*
X0232359Y0123085D02*
X0234761Y0123085D01*
X0234761Y0124822D02*
X0232359Y0124822D01*
X0232359Y0127028D01*
X0234761Y0127028D01*
X0234761Y0124822D01*
X0234761Y0125372D02*
X0232359Y0125372D01*
X0232359Y0125922D02*
X0234761Y0125922D01*
X0234761Y0126472D02*
X0232359Y0126472D01*
X0232359Y0127022D02*
X0234761Y0127022D01*
X0206214Y0104826D02*
X0206214Y0102424D01*
X0206214Y0104826D02*
X0208420Y0104826D01*
X0208420Y0102424D01*
X0206214Y0102424D01*
X0206214Y0102974D02*
X0208420Y0102974D01*
X0208420Y0103524D02*
X0206214Y0103524D01*
X0206214Y0104074D02*
X0208420Y0104074D01*
X0208420Y0104624D02*
X0206214Y0104624D01*
X0202277Y0104826D02*
X0202277Y0102424D01*
X0202277Y0104826D02*
X0204483Y0104826D01*
X0204483Y0102424D01*
X0202277Y0102424D01*
X0202277Y0102974D02*
X0204483Y0102974D01*
X0204483Y0103524D02*
X0202277Y0103524D01*
X0202277Y0104074D02*
X0204483Y0104074D01*
X0204483Y0104624D02*
X0202277Y0104624D01*
X0202377Y0101116D02*
X0202377Y0098714D01*
X0202377Y0101116D02*
X0204583Y0101116D01*
X0204583Y0098714D01*
X0202377Y0098714D01*
X0202377Y0099264D02*
X0204583Y0099264D01*
X0204583Y0099814D02*
X0202377Y0099814D01*
X0202377Y0100364D02*
X0204583Y0100364D01*
X0204583Y0100914D02*
X0202377Y0100914D01*
X0206314Y0101116D02*
X0206314Y0098714D01*
X0206314Y0101116D02*
X0208520Y0101116D01*
X0208520Y0098714D01*
X0206314Y0098714D01*
X0206314Y0099264D02*
X0208520Y0099264D01*
X0208520Y0099814D02*
X0206314Y0099814D01*
X0206314Y0100364D02*
X0208520Y0100364D01*
X0208520Y0100914D02*
X0206314Y0100914D01*
X0204425Y0092727D02*
X0204425Y0090325D01*
X0204425Y0092727D02*
X0206631Y0092727D01*
X0206631Y0090325D01*
X0204425Y0090325D01*
X0204425Y0090875D02*
X0206631Y0090875D01*
X0206631Y0091425D02*
X0204425Y0091425D01*
X0204425Y0091975D02*
X0206631Y0091975D01*
X0206631Y0092525D02*
X0204425Y0092525D01*
X0200488Y0092727D02*
X0200488Y0090325D01*
X0200488Y0092727D02*
X0202694Y0092727D01*
X0202694Y0090325D01*
X0200488Y0090325D01*
X0200488Y0090875D02*
X0202694Y0090875D01*
X0202694Y0091425D02*
X0200488Y0091425D01*
X0200488Y0091975D02*
X0202694Y0091975D01*
X0202694Y0092525D02*
X0200488Y0092525D01*
X0200585Y0088932D02*
X0200585Y0086530D01*
X0200585Y0088932D02*
X0202791Y0088932D01*
X0202791Y0086530D01*
X0200585Y0086530D01*
X0200585Y0087080D02*
X0202791Y0087080D01*
X0202791Y0087630D02*
X0200585Y0087630D01*
X0200585Y0088180D02*
X0202791Y0088180D01*
X0202791Y0088730D02*
X0200585Y0088730D01*
X0204522Y0088932D02*
X0204522Y0086530D01*
X0204522Y0088932D02*
X0206728Y0088932D01*
X0206728Y0086530D01*
X0204522Y0086530D01*
X0204522Y0087080D02*
X0206728Y0087080D01*
X0206728Y0087630D02*
X0204522Y0087630D01*
X0204522Y0088180D02*
X0206728Y0088180D01*
X0206728Y0088730D02*
X0204522Y0088730D01*
X0206631Y0085135D02*
X0206631Y0082733D01*
X0204425Y0082733D01*
X0204425Y0085135D01*
X0206631Y0085135D01*
X0206631Y0083283D02*
X0204425Y0083283D01*
X0204425Y0083833D02*
X0206631Y0083833D01*
X0206631Y0084383D02*
X0204425Y0084383D01*
X0204425Y0084933D02*
X0206631Y0084933D01*
X0202694Y0085135D02*
X0202694Y0082733D01*
X0200488Y0082733D01*
X0200488Y0085135D01*
X0202694Y0085135D01*
X0202694Y0083283D02*
X0200488Y0083283D01*
X0200488Y0083833D02*
X0202694Y0083833D01*
X0202694Y0084383D02*
X0200488Y0084383D01*
X0200488Y0084933D02*
X0202694Y0084933D01*
X0196231Y0090325D02*
X0196231Y0092727D01*
X0196231Y0090325D02*
X0194025Y0090325D01*
X0194025Y0092727D01*
X0196231Y0092727D01*
X0196231Y0090875D02*
X0194025Y0090875D01*
X0194025Y0091425D02*
X0196231Y0091425D01*
X0196231Y0091975D02*
X0194025Y0091975D01*
X0194025Y0092525D02*
X0196231Y0092525D01*
X0192294Y0092727D02*
X0192294Y0090325D01*
X0190088Y0090325D01*
X0190088Y0092727D01*
X0192294Y0092727D01*
X0192294Y0090875D02*
X0190088Y0090875D01*
X0190088Y0091425D02*
X0192294Y0091425D01*
X0192294Y0091975D02*
X0190088Y0091975D01*
X0190088Y0092525D02*
X0192294Y0092525D01*
X0182151Y0113449D02*
X0179749Y0113449D01*
X0182151Y0113449D02*
X0182151Y0111243D01*
X0179749Y0111243D01*
X0179749Y0113449D01*
X0179749Y0111793D02*
X0182151Y0111793D01*
X0182151Y0112343D02*
X0179749Y0112343D01*
X0179749Y0112893D02*
X0182151Y0112893D01*
X0182151Y0113443D02*
X0179749Y0113443D01*
X0179749Y0117386D02*
X0182151Y0117386D01*
X0182151Y0115180D01*
X0179749Y0115180D01*
X0179749Y0117386D01*
X0179749Y0115730D02*
X0182151Y0115730D01*
X0182151Y0116280D02*
X0179749Y0116280D01*
X0179749Y0116830D02*
X0182151Y0116830D01*
X0182151Y0117380D02*
X0179749Y0117380D01*
X0206494Y0147640D02*
X0206494Y0150042D01*
X0206494Y0147640D02*
X0204288Y0147640D01*
X0204288Y0150042D01*
X0206494Y0150042D01*
X0206494Y0148190D02*
X0204288Y0148190D01*
X0204288Y0148740D02*
X0206494Y0148740D01*
X0206494Y0149290D02*
X0204288Y0149290D01*
X0204288Y0149840D02*
X0206494Y0149840D01*
X0210431Y0150042D02*
X0210431Y0147640D01*
X0208225Y0147640D01*
X0208225Y0150042D01*
X0210431Y0150042D01*
X0210431Y0148190D02*
X0208225Y0148190D01*
X0208225Y0148740D02*
X0210431Y0148740D01*
X0210431Y0149290D02*
X0208225Y0149290D01*
X0208225Y0149840D02*
X0210431Y0149840D01*
X0130231Y0168549D02*
X0130231Y0170951D01*
X0130231Y0168549D02*
X0128025Y0168549D01*
X0128025Y0170951D01*
X0130231Y0170951D01*
X0130231Y0169099D02*
X0128025Y0169099D01*
X0128025Y0169649D02*
X0130231Y0169649D01*
X0130231Y0170199D02*
X0128025Y0170199D01*
X0128025Y0170749D02*
X0130231Y0170749D01*
X0130331Y0172349D02*
X0130331Y0174751D01*
X0130331Y0172349D02*
X0128125Y0172349D01*
X0128125Y0174751D01*
X0130331Y0174751D01*
X0130331Y0172899D02*
X0128125Y0172899D01*
X0128125Y0173449D02*
X0130331Y0173449D01*
X0130331Y0173999D02*
X0128125Y0173999D01*
X0128125Y0174549D02*
X0130331Y0174549D01*
X0126394Y0174751D02*
X0126394Y0172349D01*
X0124188Y0172349D01*
X0124188Y0174751D01*
X0126394Y0174751D01*
X0126394Y0172899D02*
X0124188Y0172899D01*
X0124188Y0173449D02*
X0126394Y0173449D01*
X0126394Y0173999D02*
X0124188Y0173999D01*
X0124188Y0174549D02*
X0126394Y0174549D01*
X0126294Y0170951D02*
X0126294Y0168549D01*
X0124088Y0168549D01*
X0124088Y0170951D01*
X0126294Y0170951D01*
X0126294Y0169099D02*
X0124088Y0169099D01*
X0124088Y0169649D02*
X0126294Y0169649D01*
X0126294Y0170199D02*
X0124088Y0170199D01*
X0124088Y0170749D02*
X0126294Y0170749D01*
X0092925Y0151151D02*
X0092925Y0148749D01*
X0092925Y0151151D02*
X0095131Y0151151D01*
X0095131Y0148749D01*
X0092925Y0148749D01*
X0092925Y0149299D02*
X0095131Y0149299D01*
X0095131Y0149849D02*
X0092925Y0149849D01*
X0092925Y0150399D02*
X0095131Y0150399D01*
X0095131Y0150949D02*
X0092925Y0150949D01*
X0088988Y0151151D02*
X0088988Y0148749D01*
X0088988Y0151151D02*
X0091194Y0151151D01*
X0091194Y0148749D01*
X0088988Y0148749D01*
X0088988Y0149299D02*
X0091194Y0149299D01*
X0091194Y0149849D02*
X0088988Y0149849D01*
X0088988Y0150399D02*
X0091194Y0150399D01*
X0091194Y0150949D02*
X0088988Y0150949D01*
X0091194Y0147451D02*
X0091194Y0145049D01*
X0088988Y0145049D01*
X0088988Y0147451D01*
X0091194Y0147451D01*
X0091194Y0145599D02*
X0088988Y0145599D01*
X0088988Y0146149D02*
X0091194Y0146149D01*
X0091194Y0146699D02*
X0088988Y0146699D01*
X0088988Y0147249D02*
X0091194Y0147249D01*
X0095131Y0147451D02*
X0095131Y0145049D01*
X0092925Y0145049D01*
X0092925Y0147451D01*
X0095131Y0147451D01*
X0095131Y0145599D02*
X0092925Y0145599D01*
X0092925Y0146149D02*
X0095131Y0146149D01*
X0095131Y0146699D02*
X0092925Y0146699D01*
X0092925Y0147249D02*
X0095131Y0147249D01*
X0071325Y0131651D02*
X0071325Y0129249D01*
X0071325Y0131651D02*
X0073531Y0131651D01*
X0073531Y0129249D01*
X0071325Y0129249D01*
X0071325Y0129799D02*
X0073531Y0129799D01*
X0073531Y0130349D02*
X0071325Y0130349D01*
X0071325Y0130899D02*
X0073531Y0130899D01*
X0073531Y0131449D02*
X0071325Y0131449D01*
X0067388Y0131651D02*
X0067388Y0129249D01*
X0067388Y0131651D02*
X0069594Y0131651D01*
X0069594Y0129249D01*
X0067388Y0129249D01*
X0067388Y0129799D02*
X0069594Y0129799D01*
X0069594Y0130349D02*
X0067388Y0130349D01*
X0067388Y0130899D02*
X0069594Y0130899D01*
X0069594Y0131449D02*
X0067388Y0131449D01*
X0067274Y0124949D02*
X0067274Y0122547D01*
X0067274Y0124949D02*
X0069480Y0124949D01*
X0069480Y0122547D01*
X0067274Y0122547D01*
X0067274Y0123097D02*
X0069480Y0123097D01*
X0069480Y0123647D02*
X0067274Y0123647D01*
X0067274Y0124197D02*
X0069480Y0124197D01*
X0069480Y0124747D02*
X0067274Y0124747D01*
X0071211Y0124949D02*
X0071211Y0122547D01*
X0071211Y0124949D02*
X0073417Y0124949D01*
X0073417Y0122547D01*
X0071211Y0122547D01*
X0071211Y0123097D02*
X0073417Y0123097D01*
X0073417Y0123647D02*
X0071211Y0123647D01*
X0071211Y0124197D02*
X0073417Y0124197D01*
X0073417Y0124747D02*
X0071211Y0124747D01*
X0055925Y0142949D02*
X0055925Y0145351D01*
X0058131Y0145351D01*
X0058131Y0142949D01*
X0055925Y0142949D01*
X0055925Y0143499D02*
X0058131Y0143499D01*
X0058131Y0144049D02*
X0055925Y0144049D01*
X0055925Y0144599D02*
X0058131Y0144599D01*
X0058131Y0145149D02*
X0055925Y0145149D01*
X0051988Y0145351D02*
X0051988Y0142949D01*
X0051988Y0145351D02*
X0054194Y0145351D01*
X0054194Y0142949D01*
X0051988Y0142949D01*
X0051988Y0143499D02*
X0054194Y0143499D01*
X0054194Y0144049D02*
X0051988Y0144049D01*
X0051988Y0144599D02*
X0054194Y0144599D01*
X0054194Y0145149D02*
X0051988Y0145149D01*
X0060559Y0144278D02*
X0062961Y0144278D01*
X0060559Y0144278D02*
X0060559Y0146484D01*
X0062961Y0146484D01*
X0062961Y0144278D01*
X0062961Y0144828D02*
X0060559Y0144828D01*
X0060559Y0145378D02*
X0062961Y0145378D01*
X0062961Y0145928D02*
X0060559Y0145928D01*
X0060559Y0146478D02*
X0062961Y0146478D01*
X0062961Y0148216D02*
X0060559Y0148216D01*
X0060559Y0150422D01*
X0062961Y0150422D01*
X0062961Y0148216D01*
X0062961Y0148766D02*
X0060559Y0148766D01*
X0060559Y0149316D02*
X0062961Y0149316D01*
X0062961Y0149866D02*
X0060559Y0149866D01*
X0060559Y0150416D02*
X0062961Y0150416D01*
X0029131Y0175649D02*
X0029131Y0178051D01*
X0029131Y0175649D02*
X0026925Y0175649D01*
X0026925Y0178051D01*
X0029131Y0178051D01*
X0029131Y0176199D02*
X0026925Y0176199D01*
X0026925Y0176749D02*
X0029131Y0176749D01*
X0029131Y0177299D02*
X0026925Y0177299D01*
X0026925Y0177849D02*
X0029131Y0177849D01*
X0029031Y0180549D02*
X0029031Y0182951D01*
X0029031Y0180549D02*
X0026825Y0180549D01*
X0026825Y0182951D01*
X0029031Y0182951D01*
X0029031Y0181099D02*
X0026825Y0181099D01*
X0026825Y0181649D02*
X0029031Y0181649D01*
X0029031Y0182199D02*
X0026825Y0182199D01*
X0026825Y0182749D02*
X0029031Y0182749D01*
X0025094Y0182951D02*
X0025094Y0180549D01*
X0022888Y0180549D01*
X0022888Y0182951D01*
X0025094Y0182951D01*
X0025094Y0181099D02*
X0022888Y0181099D01*
X0022888Y0181649D02*
X0025094Y0181649D01*
X0025094Y0182199D02*
X0022888Y0182199D01*
X0022888Y0182749D02*
X0025094Y0182749D01*
X0020661Y0180616D02*
X0018259Y0180616D01*
X0018259Y0182822D01*
X0020661Y0182822D01*
X0020661Y0180616D01*
X0020661Y0181166D02*
X0018259Y0181166D01*
X0018259Y0181716D02*
X0020661Y0181716D01*
X0020661Y0182266D02*
X0018259Y0182266D01*
X0018259Y0182816D02*
X0020661Y0182816D01*
X0020661Y0176678D02*
X0018259Y0176678D01*
X0018259Y0178884D01*
X0020661Y0178884D01*
X0020661Y0176678D01*
X0020661Y0177228D02*
X0018259Y0177228D01*
X0018259Y0177778D02*
X0020661Y0177778D01*
X0020661Y0178328D02*
X0018259Y0178328D01*
X0018259Y0178878D02*
X0020661Y0178878D01*
X0025194Y0178051D02*
X0025194Y0175649D01*
X0022988Y0175649D01*
X0022988Y0178051D01*
X0025194Y0178051D01*
X0025194Y0176199D02*
X0022988Y0176199D01*
X0022988Y0176749D02*
X0025194Y0176749D01*
X0025194Y0177299D02*
X0022988Y0177299D01*
X0022988Y0177849D02*
X0025194Y0177849D01*
X0015410Y0176644D02*
X0013008Y0176644D01*
X0013008Y0178850D01*
X0015410Y0178850D01*
X0015410Y0176644D01*
X0015410Y0177194D02*
X0013008Y0177194D01*
X0013008Y0177744D02*
X0015410Y0177744D01*
X0015410Y0178294D02*
X0013008Y0178294D01*
X0013008Y0178844D02*
X0015410Y0178844D01*
X0015410Y0180581D02*
X0013008Y0180581D01*
X0013008Y0182787D01*
X0015410Y0182787D01*
X0015410Y0180581D01*
X0015410Y0181131D02*
X0013008Y0181131D01*
X0013008Y0181681D02*
X0015410Y0181681D01*
X0015410Y0182231D02*
X0013008Y0182231D01*
X0013008Y0182781D02*
X0015410Y0182781D01*
X0055959Y0190584D02*
X0058361Y0190584D01*
X0058361Y0188378D01*
X0055959Y0188378D01*
X0055959Y0190584D01*
X0055959Y0188928D02*
X0058361Y0188928D01*
X0058361Y0189478D02*
X0055959Y0189478D01*
X0055959Y0190028D02*
X0058361Y0190028D01*
X0058361Y0190578D02*
X0055959Y0190578D01*
X0055959Y0194522D02*
X0058361Y0194522D01*
X0058361Y0192316D01*
X0055959Y0192316D01*
X0055959Y0194522D01*
X0055959Y0192866D02*
X0058361Y0192866D01*
X0058361Y0193416D02*
X0055959Y0193416D01*
X0055959Y0193966D02*
X0058361Y0193966D01*
X0058361Y0194516D02*
X0055959Y0194516D01*
X0060759Y0192216D02*
X0063161Y0192216D01*
X0060759Y0192216D02*
X0060759Y0194422D01*
X0063161Y0194422D01*
X0063161Y0192216D01*
X0063161Y0192766D02*
X0060759Y0192766D01*
X0060759Y0193316D02*
X0063161Y0193316D01*
X0063161Y0193866D02*
X0060759Y0193866D01*
X0060759Y0194416D02*
X0063161Y0194416D01*
X0063161Y0188278D02*
X0060759Y0188278D01*
X0060759Y0190484D01*
X0063161Y0190484D01*
X0063161Y0188278D01*
X0063161Y0188828D02*
X0060759Y0188828D01*
X0060759Y0189378D02*
X0063161Y0189378D01*
X0063161Y0189928D02*
X0060759Y0189928D01*
X0060759Y0190478D02*
X0063161Y0190478D01*
X0058361Y0204184D02*
X0055959Y0204184D01*
X0058361Y0204184D02*
X0058361Y0201978D01*
X0055959Y0201978D01*
X0055959Y0204184D01*
X0055959Y0202528D02*
X0058361Y0202528D01*
X0058361Y0203078D02*
X0055959Y0203078D01*
X0055959Y0203628D02*
X0058361Y0203628D01*
X0058361Y0204178D02*
X0055959Y0204178D01*
X0055959Y0208122D02*
X0058361Y0208122D01*
X0058361Y0205916D01*
X0055959Y0205916D01*
X0055959Y0208122D01*
X0055959Y0206466D02*
X0058361Y0206466D01*
X0058361Y0207016D02*
X0055959Y0207016D01*
X0055959Y0207566D02*
X0058361Y0207566D01*
X0058361Y0208116D02*
X0055959Y0208116D01*
X0034561Y0062116D02*
X0032159Y0062116D01*
X0032159Y0064322D01*
X0034561Y0064322D01*
X0034561Y0062116D01*
X0034561Y0062666D02*
X0032159Y0062666D01*
X0032159Y0063216D02*
X0034561Y0063216D01*
X0034561Y0063766D02*
X0032159Y0063766D01*
X0032159Y0064316D02*
X0034561Y0064316D01*
X0034561Y0058178D02*
X0032159Y0058178D01*
X0032159Y0060384D01*
X0034561Y0060384D01*
X0034561Y0058178D01*
X0034561Y0058728D02*
X0032159Y0058728D01*
X0032159Y0059278D02*
X0034561Y0059278D01*
X0034561Y0059828D02*
X0032159Y0059828D01*
X0032159Y0060378D02*
X0034561Y0060378D01*
X0029761Y0060484D02*
X0027359Y0060484D01*
X0029761Y0060484D02*
X0029761Y0058278D01*
X0027359Y0058278D01*
X0027359Y0060484D01*
X0027359Y0058828D02*
X0029761Y0058828D01*
X0029761Y0059378D02*
X0027359Y0059378D01*
X0027359Y0059928D02*
X0029761Y0059928D01*
X0029761Y0060478D02*
X0027359Y0060478D01*
X0027359Y0064422D02*
X0029761Y0064422D01*
X0029761Y0062216D01*
X0027359Y0062216D01*
X0027359Y0064422D01*
X0027359Y0062766D02*
X0029761Y0062766D01*
X0029761Y0063316D02*
X0027359Y0063316D01*
X0027359Y0063866D02*
X0029761Y0063866D01*
X0029761Y0064416D02*
X0027359Y0064416D01*
D21*
X0236876Y0091207D03*
X0236876Y0101207D03*
D22*
X0214376Y0096207D03*
D23*
X0061394Y0123450D03*
X0061394Y0130450D03*
X0061394Y0137450D03*
X0053126Y0137450D03*
X0053126Y0130450D03*
X0053126Y0123450D03*
D24*
X0261760Y0084616D03*
D25*
X0266760Y0084616D03*
X0266760Y0079616D03*
X0266760Y0074616D03*
X0266760Y0069616D03*
X0261760Y0069616D03*
X0261760Y0074616D03*
X0261760Y0079616D03*
X0261760Y0064616D03*
X0266760Y0064616D03*
D26*
X0201172Y0074782D02*
X0196854Y0074782D01*
X0201172Y0074782D02*
X0201172Y0066464D01*
X0196854Y0066464D01*
X0196854Y0074782D01*
X0196854Y0066943D02*
X0201172Y0066943D01*
X0201172Y0067422D02*
X0196854Y0067422D01*
X0196854Y0067901D02*
X0201172Y0067901D01*
X0201172Y0068380D02*
X0196854Y0068380D01*
X0196854Y0068859D02*
X0201172Y0068859D01*
X0201172Y0069338D02*
X0196854Y0069338D01*
X0196854Y0069817D02*
X0201172Y0069817D01*
X0201172Y0070296D02*
X0196854Y0070296D01*
X0196854Y0070775D02*
X0201172Y0070775D01*
X0201172Y0071254D02*
X0196854Y0071254D01*
X0196854Y0071733D02*
X0201172Y0071733D01*
X0201172Y0072212D02*
X0196854Y0072212D01*
X0196854Y0072691D02*
X0201172Y0072691D01*
X0201172Y0073170D02*
X0196854Y0073170D01*
X0196854Y0073649D02*
X0201172Y0073649D01*
X0201172Y0074128D02*
X0196854Y0074128D01*
X0196854Y0074607D02*
X0201172Y0074607D01*
X0192074Y0074782D02*
X0187756Y0074782D01*
X0192074Y0074782D02*
X0192074Y0066464D01*
X0187756Y0066464D01*
X0187756Y0074782D01*
X0187756Y0066943D02*
X0192074Y0066943D01*
X0192074Y0067422D02*
X0187756Y0067422D01*
X0187756Y0067901D02*
X0192074Y0067901D01*
X0192074Y0068380D02*
X0187756Y0068380D01*
X0187756Y0068859D02*
X0192074Y0068859D01*
X0192074Y0069338D02*
X0187756Y0069338D01*
X0187756Y0069817D02*
X0192074Y0069817D01*
X0192074Y0070296D02*
X0187756Y0070296D01*
X0187756Y0070775D02*
X0192074Y0070775D01*
X0192074Y0071254D02*
X0187756Y0071254D01*
X0187756Y0071733D02*
X0192074Y0071733D01*
X0192074Y0072212D02*
X0187756Y0072212D01*
X0187756Y0072691D02*
X0192074Y0072691D01*
X0192074Y0073170D02*
X0187756Y0073170D01*
X0187756Y0073649D02*
X0192074Y0073649D01*
X0192074Y0074128D02*
X0187756Y0074128D01*
X0187756Y0074607D02*
X0192074Y0074607D01*
X0182976Y0074782D02*
X0178658Y0074782D01*
X0182976Y0074782D02*
X0182976Y0066464D01*
X0178658Y0066464D01*
X0178658Y0074782D01*
X0178658Y0066943D02*
X0182976Y0066943D01*
X0182976Y0067422D02*
X0178658Y0067422D01*
X0178658Y0067901D02*
X0182976Y0067901D01*
X0182976Y0068380D02*
X0178658Y0068380D01*
X0178658Y0068859D02*
X0182976Y0068859D01*
X0182976Y0069338D02*
X0178658Y0069338D01*
X0178658Y0069817D02*
X0182976Y0069817D01*
X0182976Y0070296D02*
X0178658Y0070296D01*
X0178658Y0070775D02*
X0182976Y0070775D01*
X0182976Y0071254D02*
X0178658Y0071254D01*
X0178658Y0071733D02*
X0182976Y0071733D01*
X0182976Y0072212D02*
X0178658Y0072212D01*
X0178658Y0072691D02*
X0182976Y0072691D01*
X0182976Y0073170D02*
X0178658Y0073170D01*
X0178658Y0073649D02*
X0182976Y0073649D01*
X0182976Y0074128D02*
X0178658Y0074128D01*
X0178658Y0074607D02*
X0182976Y0074607D01*
D27*
X0183262Y0050119D02*
X0196568Y0050119D01*
X0196568Y0042325D01*
X0183262Y0042325D01*
X0183262Y0050119D01*
X0183262Y0043190D02*
X0196568Y0043190D01*
X0196568Y0044055D02*
X0183262Y0044055D01*
X0183262Y0044920D02*
X0196568Y0044920D01*
X0196568Y0045785D02*
X0183262Y0045785D01*
X0183262Y0046650D02*
X0196568Y0046650D01*
X0196568Y0047515D02*
X0183262Y0047515D01*
X0183262Y0048380D02*
X0196568Y0048380D01*
X0196568Y0049245D02*
X0183262Y0049245D01*
X0183262Y0050110D02*
X0196568Y0050110D01*
D28*
X0222764Y0050537D03*
X0222764Y0069435D03*
D29*
X0249660Y0149650D03*
X0249660Y0155650D03*
D30*
X0021689Y0155600D02*
X0021689Y0157018D01*
X0027831Y0157018D01*
X0027831Y0155600D01*
X0021689Y0155600D01*
X0021689Y0155756D02*
X0027831Y0155756D01*
X0027831Y0155912D02*
X0021689Y0155912D01*
X0021689Y0156068D02*
X0027831Y0156068D01*
X0027831Y0156224D02*
X0021689Y0156224D01*
X0021689Y0156380D02*
X0027831Y0156380D01*
X0027831Y0156536D02*
X0021689Y0156536D01*
X0021689Y0156692D02*
X0027831Y0156692D01*
X0027831Y0156848D02*
X0021689Y0156848D01*
X0021689Y0157004D02*
X0027831Y0157004D01*
X0021689Y0158159D02*
X0021689Y0159577D01*
X0027831Y0159577D01*
X0027831Y0158159D01*
X0021689Y0158159D01*
X0021689Y0158315D02*
X0027831Y0158315D01*
X0027831Y0158471D02*
X0021689Y0158471D01*
X0021689Y0158627D02*
X0027831Y0158627D01*
X0027831Y0158783D02*
X0021689Y0158783D01*
X0021689Y0158939D02*
X0027831Y0158939D01*
X0027831Y0159095D02*
X0021689Y0159095D01*
X0021689Y0159251D02*
X0027831Y0159251D01*
X0027831Y0159407D02*
X0021689Y0159407D01*
X0021689Y0159563D02*
X0027831Y0159563D01*
X0021689Y0154459D02*
X0021689Y0153041D01*
X0021689Y0154459D02*
X0027831Y0154459D01*
X0027831Y0153041D01*
X0021689Y0153041D01*
X0021689Y0153197D02*
X0027831Y0153197D01*
X0027831Y0153353D02*
X0021689Y0153353D01*
X0021689Y0153509D02*
X0027831Y0153509D01*
X0027831Y0153665D02*
X0021689Y0153665D01*
X0021689Y0153821D02*
X0027831Y0153821D01*
X0027831Y0153977D02*
X0021689Y0153977D01*
X0021689Y0154133D02*
X0027831Y0154133D01*
X0027831Y0154289D02*
X0021689Y0154289D01*
X0021689Y0154445D02*
X0027831Y0154445D01*
X0021689Y0151900D02*
X0021689Y0150482D01*
X0021689Y0151900D02*
X0027831Y0151900D01*
X0027831Y0150482D01*
X0021689Y0150482D01*
X0021689Y0150638D02*
X0027831Y0150638D01*
X0027831Y0150794D02*
X0021689Y0150794D01*
X0021689Y0150950D02*
X0027831Y0150950D01*
X0027831Y0151106D02*
X0021689Y0151106D01*
X0021689Y0151262D02*
X0027831Y0151262D01*
X0027831Y0151418D02*
X0021689Y0151418D01*
X0021689Y0151574D02*
X0027831Y0151574D01*
X0027831Y0151730D02*
X0021689Y0151730D01*
X0021689Y0151886D02*
X0027831Y0151886D01*
X0021689Y0149341D02*
X0021689Y0147923D01*
X0021689Y0149341D02*
X0027831Y0149341D01*
X0027831Y0147923D01*
X0021689Y0147923D01*
X0021689Y0148079D02*
X0027831Y0148079D01*
X0027831Y0148235D02*
X0021689Y0148235D01*
X0021689Y0148391D02*
X0027831Y0148391D01*
X0027831Y0148547D02*
X0021689Y0148547D01*
X0021689Y0148703D02*
X0027831Y0148703D01*
X0027831Y0148859D02*
X0021689Y0148859D01*
X0021689Y0149015D02*
X0027831Y0149015D01*
X0027831Y0149171D02*
X0021689Y0149171D01*
X0021689Y0149327D02*
X0027831Y0149327D01*
D31*
X0014720Y0158474D03*
X0014720Y0170089D03*
D32*
X0024760Y0165955D03*
X0024760Y0141545D03*
D33*
X0044039Y0150474D03*
X0044039Y0159136D03*
X0036559Y0159136D03*
D34*
X0037346Y0150474D03*
D35*
X0039119Y0178129D03*
X0057229Y0178129D03*
D36*
X0099484Y0023525D02*
X0104406Y0023525D01*
X0104406Y0019589D01*
X0099484Y0019589D01*
X0099484Y0023525D01*
X0099484Y0020572D02*
X0104406Y0020572D01*
X0104406Y0021555D02*
X0099484Y0021555D01*
X0099484Y0022538D02*
X0104406Y0022538D01*
X0104406Y0023521D02*
X0099484Y0023521D01*
X0099484Y0016045D02*
X0104406Y0016045D01*
X0104406Y0012109D01*
X0099484Y0012109D01*
X0099484Y0016045D01*
X0099484Y0013092D02*
X0104406Y0013092D01*
X0104406Y0014075D02*
X0099484Y0014075D01*
X0099484Y0015058D02*
X0104406Y0015058D01*
X0104406Y0016041D02*
X0099484Y0016041D01*
D37*
X0089346Y0018014D03*
X0075961Y0018014D03*
D38*
X0053008Y0187127D02*
X0047536Y0187127D01*
X0047536Y0191813D01*
X0053008Y0191813D01*
X0053008Y0187127D01*
X0053008Y0187953D02*
X0047536Y0187953D01*
X0047536Y0188779D02*
X0053008Y0188779D01*
X0053008Y0189605D02*
X0047536Y0189605D01*
X0047536Y0190431D02*
X0053008Y0190431D01*
X0053008Y0191257D02*
X0047536Y0191257D01*
X0047536Y0204844D02*
X0053008Y0204844D01*
X0047536Y0204844D02*
X0047536Y0209530D01*
X0053008Y0209530D01*
X0053008Y0204844D01*
X0053008Y0205670D02*
X0047536Y0205670D01*
X0047536Y0206496D02*
X0053008Y0206496D01*
X0053008Y0207322D02*
X0047536Y0207322D01*
X0047536Y0208148D02*
X0053008Y0208148D01*
X0053008Y0208974D02*
X0047536Y0208974D01*
X0019937Y0204844D02*
X0014465Y0204844D01*
X0014465Y0209530D01*
X0019937Y0209530D01*
X0019937Y0204844D01*
X0019937Y0205670D02*
X0014465Y0205670D01*
X0014465Y0206496D02*
X0019937Y0206496D01*
X0019937Y0207322D02*
X0014465Y0207322D01*
X0014465Y0208148D02*
X0019937Y0208148D01*
X0019937Y0208974D02*
X0014465Y0208974D01*
X0014465Y0187127D02*
X0019937Y0187127D01*
X0014465Y0187127D02*
X0014465Y0191813D01*
X0019937Y0191813D01*
X0019937Y0187127D01*
X0019937Y0187953D02*
X0014465Y0187953D01*
X0014465Y0188779D02*
X0019937Y0188779D01*
X0019937Y0189605D02*
X0014465Y0189605D01*
X0014465Y0190431D02*
X0019937Y0190431D01*
X0019937Y0191257D02*
X0014465Y0191257D01*
M02*
