G75*
%MOIN*%
%OFA0B0*%
%FSLAX25Y25*%
%IPPOS*%
%LPD*%
%AMOC8*
5,1,8,0,0,1.08239X$1,22.5*
%
%ADD10C,0.12598*%
%ADD11OC8,0.06102*%
%ADD12C,0.05600*%
%ADD13C,0.00748*%
%ADD14R,0.11811X0.05512*%
%ADD15OC8,0.15748*%
%ADD16R,0.15748X0.15748*%
%ADD17C,0.07677*%
%ADD18C,0.05000*%
%ADD19C,0.01008*%
%ADD20C,0.00551*%
%ADD21R,0.05000X0.02500*%
%ADD22R,0.07500X0.08000*%
%ADD23R,0.04724X0.04724*%
%ADD24R,0.04000X0.04000*%
%ADD25C,0.04000*%
%ADD26C,0.00480*%
%ADD27C,0.00866*%
%ADD28R,0.05512X0.11811*%
%ADD29R,0.06300X0.04600*%
%ADD30R,0.07200X0.00600*%
%ADD31C,0.00157*%
%ADD32R,0.07480X0.07480*%
%ADD33R,0.06299X0.08268*%
%ADD34R,0.01890X0.02165*%
%ADD35R,0.03465X0.02165*%
%ADD36R,0.06299X0.11811*%
%ADD37C,0.00984*%
%ADD38R,0.05512X0.07087*%
%ADD39C,0.00827*%
D10*
X0063760Y0013750D03*
X0268760Y0033750D03*
X0268760Y0143750D03*
X0068760Y0203750D03*
D11*
X0259260Y0123750D03*
X0269260Y0123750D03*
X0269260Y0113750D03*
X0259260Y0113750D03*
X0259260Y0103750D03*
X0269260Y0103750D03*
D12*
X0258760Y0016550D02*
X0258760Y0010950D01*
X0248760Y0010950D02*
X0248760Y0016550D01*
X0238760Y0016550D02*
X0238760Y0010950D01*
X0228760Y0010950D02*
X0228760Y0016550D01*
X0218760Y0016550D02*
X0218760Y0010950D01*
X0208760Y0010950D02*
X0208760Y0016550D01*
X0188760Y0016550D02*
X0188760Y0010950D01*
X0178760Y0010950D02*
X0178760Y0016550D01*
X0168760Y0016550D02*
X0168760Y0010950D01*
X0158760Y0010950D02*
X0158760Y0016550D01*
X0148760Y0016550D02*
X0148760Y0010950D01*
X0138760Y0010950D02*
X0138760Y0016550D01*
X0128760Y0016550D02*
X0128760Y0010950D01*
X0118760Y0010950D02*
X0118760Y0016550D01*
X0122760Y0200950D02*
X0122760Y0206550D01*
X0112760Y0206550D02*
X0112760Y0200950D01*
X0102760Y0200950D02*
X0102760Y0206550D01*
X0092760Y0206550D02*
X0092760Y0200950D01*
X0082760Y0200950D02*
X0082760Y0206550D01*
X0132760Y0206550D02*
X0132760Y0200950D01*
X0142760Y0200950D02*
X0142760Y0206550D01*
X0152760Y0206550D02*
X0152760Y0200950D01*
X0162760Y0200950D02*
X0162760Y0206550D01*
X0172760Y0206550D02*
X0172760Y0200950D01*
X0188760Y0200950D02*
X0188760Y0206550D01*
X0198760Y0206550D02*
X0198760Y0200950D01*
X0208760Y0200950D02*
X0208760Y0206550D01*
X0218760Y0206550D02*
X0218760Y0200950D01*
X0228760Y0200950D02*
X0228760Y0206550D01*
X0238760Y0206550D02*
X0238760Y0200950D01*
X0248760Y0200950D02*
X0248760Y0206550D01*
X0258760Y0206550D02*
X0258760Y0200950D01*
D13*
X0238954Y0125610D02*
X0235766Y0125610D01*
X0235766Y0128602D01*
X0238954Y0128602D01*
X0238954Y0125610D01*
X0238954Y0126357D02*
X0235766Y0126357D01*
X0235766Y0127104D02*
X0238954Y0127104D01*
X0238954Y0127851D02*
X0235766Y0127851D01*
X0235766Y0128598D02*
X0238954Y0128598D01*
X0238954Y0119311D02*
X0235766Y0119311D01*
X0235766Y0122303D01*
X0238954Y0122303D01*
X0238954Y0119311D01*
X0238954Y0120058D02*
X0235766Y0120058D01*
X0235766Y0120805D02*
X0238954Y0120805D01*
X0238954Y0121552D02*
X0235766Y0121552D01*
X0235766Y0122299D02*
X0238954Y0122299D01*
X0231254Y0119311D02*
X0228066Y0119311D01*
X0228066Y0122303D01*
X0231254Y0122303D01*
X0231254Y0119311D01*
X0231254Y0120058D02*
X0228066Y0120058D01*
X0228066Y0120805D02*
X0231254Y0120805D01*
X0231254Y0121552D02*
X0228066Y0121552D01*
X0228066Y0122299D02*
X0231254Y0122299D01*
X0231254Y0125610D02*
X0228066Y0125610D01*
X0228066Y0128602D01*
X0231254Y0128602D01*
X0231254Y0125610D01*
X0231254Y0126357D02*
X0228066Y0126357D01*
X0228066Y0127104D02*
X0231254Y0127104D01*
X0231254Y0127851D02*
X0228066Y0127851D01*
X0228066Y0128598D02*
X0231254Y0128598D01*
X0188650Y0083622D02*
X0188650Y0080434D01*
X0185658Y0080434D01*
X0185658Y0083622D01*
X0188650Y0083622D01*
X0188650Y0081181D02*
X0185658Y0081181D01*
X0185658Y0081928D02*
X0188650Y0081928D01*
X0188650Y0082675D02*
X0185658Y0082675D01*
X0185658Y0083422D02*
X0188650Y0083422D01*
X0182350Y0083622D02*
X0182350Y0080434D01*
X0179358Y0080434D01*
X0179358Y0083622D01*
X0182350Y0083622D01*
X0182350Y0081181D02*
X0179358Y0081181D01*
X0179358Y0081928D02*
X0182350Y0081928D01*
X0182350Y0082675D02*
X0179358Y0082675D01*
X0179358Y0083422D02*
X0182350Y0083422D01*
X0204717Y0067557D02*
X0207905Y0067557D01*
X0204717Y0067557D02*
X0204717Y0070549D01*
X0207905Y0070549D01*
X0207905Y0067557D01*
X0207905Y0068304D02*
X0204717Y0068304D01*
X0204717Y0069051D02*
X0207905Y0069051D01*
X0207905Y0069798D02*
X0204717Y0069798D01*
X0204717Y0070545D02*
X0207905Y0070545D01*
X0207905Y0061258D02*
X0204717Y0061258D01*
X0204717Y0064250D01*
X0207905Y0064250D01*
X0207905Y0061258D01*
X0207905Y0062005D02*
X0204717Y0062005D01*
X0204717Y0062752D02*
X0207905Y0062752D01*
X0207905Y0063499D02*
X0204717Y0063499D01*
X0204717Y0064246D02*
X0207905Y0064246D01*
X0114354Y0172726D02*
X0111166Y0172726D01*
X0111166Y0175718D01*
X0114354Y0175718D01*
X0114354Y0172726D01*
X0114354Y0173473D02*
X0111166Y0173473D01*
X0111166Y0174220D02*
X0114354Y0174220D01*
X0114354Y0174967D02*
X0111166Y0174967D01*
X0111166Y0175714D02*
X0114354Y0175714D01*
X0114354Y0179026D02*
X0111166Y0179026D01*
X0111166Y0182018D01*
X0114354Y0182018D01*
X0114354Y0179026D01*
X0114354Y0179773D02*
X0111166Y0179773D01*
X0111166Y0180520D02*
X0114354Y0180520D01*
X0114354Y0181267D02*
X0111166Y0181267D01*
X0111166Y0182014D02*
X0114354Y0182014D01*
X0034254Y0183196D02*
X0031066Y0183196D01*
X0034254Y0183196D02*
X0034254Y0180204D01*
X0031066Y0180204D01*
X0031066Y0183196D01*
X0031066Y0180951D02*
X0034254Y0180951D01*
X0034254Y0181698D02*
X0031066Y0181698D01*
X0031066Y0182445D02*
X0034254Y0182445D01*
X0034254Y0183192D02*
X0031066Y0183192D01*
X0031066Y0176896D02*
X0034254Y0176896D01*
X0034254Y0173904D01*
X0031066Y0173904D01*
X0031066Y0176896D01*
X0031066Y0174651D02*
X0034254Y0174651D01*
X0034254Y0175398D02*
X0031066Y0175398D01*
X0031066Y0176145D02*
X0034254Y0176145D01*
X0034254Y0176892D02*
X0031066Y0176892D01*
X0011354Y0152392D02*
X0011354Y0145660D01*
X0011354Y0152392D02*
X0018086Y0152392D01*
X0018086Y0145660D01*
X0011354Y0145660D01*
X0011354Y0146407D02*
X0018086Y0146407D01*
X0018086Y0147154D02*
X0011354Y0147154D01*
X0011354Y0147901D02*
X0018086Y0147901D01*
X0018086Y0148648D02*
X0011354Y0148648D01*
X0011354Y0149395D02*
X0018086Y0149395D01*
X0018086Y0150142D02*
X0011354Y0150142D01*
X0011354Y0150889D02*
X0018086Y0150889D01*
X0018086Y0151636D02*
X0011354Y0151636D01*
X0011354Y0152383D02*
X0018086Y0152383D01*
X0011354Y0140777D02*
X0011354Y0134045D01*
X0011354Y0140777D02*
X0018086Y0140777D01*
X0018086Y0134045D01*
X0011354Y0134045D01*
X0011354Y0134792D02*
X0018086Y0134792D01*
X0018086Y0135539D02*
X0011354Y0135539D01*
X0011354Y0136286D02*
X0018086Y0136286D01*
X0018086Y0137033D02*
X0011354Y0137033D01*
X0011354Y0137780D02*
X0018086Y0137780D01*
X0018086Y0138527D02*
X0011354Y0138527D01*
X0011354Y0139274D02*
X0018086Y0139274D01*
X0018086Y0140021D02*
X0011354Y0140021D01*
X0011354Y0140768D02*
X0018086Y0140768D01*
D14*
X0149235Y0089752D03*
X0168133Y0089752D03*
X0095843Y0038289D03*
X0076945Y0038289D03*
D15*
X0054760Y0036450D03*
X0042960Y0016750D03*
D16*
X0031160Y0036450D03*
D17*
X0039960Y0016750D03*
X0045960Y0016750D03*
X0054760Y0033450D03*
X0054760Y0039450D03*
X0031160Y0039450D03*
X0031160Y0033450D03*
D18*
X0203055Y0125950D02*
X0203057Y0126049D01*
X0203063Y0126149D01*
X0203073Y0126248D01*
X0203087Y0126346D01*
X0203104Y0126444D01*
X0203126Y0126541D01*
X0203151Y0126637D01*
X0203180Y0126732D01*
X0203213Y0126826D01*
X0203250Y0126918D01*
X0203290Y0127009D01*
X0203334Y0127098D01*
X0203382Y0127186D01*
X0203433Y0127271D01*
X0203487Y0127354D01*
X0203544Y0127436D01*
X0203605Y0127514D01*
X0203669Y0127591D01*
X0203735Y0127664D01*
X0203805Y0127735D01*
X0203877Y0127803D01*
X0203952Y0127869D01*
X0204030Y0127931D01*
X0204110Y0127990D01*
X0204192Y0128046D01*
X0204276Y0128098D01*
X0204363Y0128147D01*
X0204451Y0128193D01*
X0204541Y0128235D01*
X0204633Y0128274D01*
X0204726Y0128309D01*
X0204820Y0128340D01*
X0204916Y0128367D01*
X0205013Y0128390D01*
X0205110Y0128410D01*
X0205208Y0128426D01*
X0205307Y0128438D01*
X0205406Y0128446D01*
X0205505Y0128450D01*
X0205605Y0128450D01*
X0205704Y0128446D01*
X0205803Y0128438D01*
X0205902Y0128426D01*
X0206000Y0128410D01*
X0206097Y0128390D01*
X0206194Y0128367D01*
X0206290Y0128340D01*
X0206384Y0128309D01*
X0206477Y0128274D01*
X0206569Y0128235D01*
X0206659Y0128193D01*
X0206747Y0128147D01*
X0206834Y0128098D01*
X0206918Y0128046D01*
X0207000Y0127990D01*
X0207080Y0127931D01*
X0207158Y0127869D01*
X0207233Y0127803D01*
X0207305Y0127735D01*
X0207375Y0127664D01*
X0207441Y0127591D01*
X0207505Y0127514D01*
X0207566Y0127436D01*
X0207623Y0127354D01*
X0207677Y0127271D01*
X0207728Y0127186D01*
X0207776Y0127098D01*
X0207820Y0127009D01*
X0207860Y0126918D01*
X0207897Y0126826D01*
X0207930Y0126732D01*
X0207959Y0126637D01*
X0207984Y0126541D01*
X0208006Y0126444D01*
X0208023Y0126346D01*
X0208037Y0126248D01*
X0208047Y0126149D01*
X0208053Y0126049D01*
X0208055Y0125950D01*
X0208053Y0125851D01*
X0208047Y0125751D01*
X0208037Y0125652D01*
X0208023Y0125554D01*
X0208006Y0125456D01*
X0207984Y0125359D01*
X0207959Y0125263D01*
X0207930Y0125168D01*
X0207897Y0125074D01*
X0207860Y0124982D01*
X0207820Y0124891D01*
X0207776Y0124802D01*
X0207728Y0124714D01*
X0207677Y0124629D01*
X0207623Y0124546D01*
X0207566Y0124464D01*
X0207505Y0124386D01*
X0207441Y0124309D01*
X0207375Y0124236D01*
X0207305Y0124165D01*
X0207233Y0124097D01*
X0207158Y0124031D01*
X0207080Y0123969D01*
X0207000Y0123910D01*
X0206918Y0123854D01*
X0206834Y0123802D01*
X0206747Y0123753D01*
X0206659Y0123707D01*
X0206569Y0123665D01*
X0206477Y0123626D01*
X0206384Y0123591D01*
X0206290Y0123560D01*
X0206194Y0123533D01*
X0206097Y0123510D01*
X0206000Y0123490D01*
X0205902Y0123474D01*
X0205803Y0123462D01*
X0205704Y0123454D01*
X0205605Y0123450D01*
X0205505Y0123450D01*
X0205406Y0123454D01*
X0205307Y0123462D01*
X0205208Y0123474D01*
X0205110Y0123490D01*
X0205013Y0123510D01*
X0204916Y0123533D01*
X0204820Y0123560D01*
X0204726Y0123591D01*
X0204633Y0123626D01*
X0204541Y0123665D01*
X0204451Y0123707D01*
X0204363Y0123753D01*
X0204276Y0123802D01*
X0204192Y0123854D01*
X0204110Y0123910D01*
X0204030Y0123969D01*
X0203952Y0124031D01*
X0203877Y0124097D01*
X0203805Y0124165D01*
X0203735Y0124236D01*
X0203669Y0124309D01*
X0203605Y0124386D01*
X0203544Y0124464D01*
X0203487Y0124546D01*
X0203433Y0124629D01*
X0203382Y0124714D01*
X0203334Y0124802D01*
X0203290Y0124891D01*
X0203250Y0124982D01*
X0203213Y0125074D01*
X0203180Y0125168D01*
X0203151Y0125263D01*
X0203126Y0125359D01*
X0203104Y0125456D01*
X0203087Y0125554D01*
X0203073Y0125652D01*
X0203063Y0125751D01*
X0203057Y0125851D01*
X0203055Y0125950D01*
D19*
X0189893Y0125092D02*
X0187555Y0125092D01*
X0189893Y0125092D02*
X0189893Y0124840D01*
X0187555Y0124840D01*
X0187555Y0125092D01*
X0187555Y0127060D02*
X0189893Y0127060D01*
X0189893Y0126808D01*
X0187555Y0126808D01*
X0187555Y0127060D01*
X0187555Y0129029D02*
X0189893Y0129029D01*
X0189893Y0128777D01*
X0187555Y0128777D01*
X0187555Y0129029D01*
X0187555Y0130997D02*
X0189893Y0130997D01*
X0189893Y0130745D01*
X0187555Y0130745D01*
X0187555Y0130997D01*
X0187555Y0132966D02*
X0189893Y0132966D01*
X0189893Y0132714D01*
X0187555Y0132714D01*
X0187555Y0132966D01*
X0187555Y0134934D02*
X0189893Y0134934D01*
X0189893Y0134682D01*
X0187555Y0134682D01*
X0187555Y0134934D01*
X0187555Y0136903D02*
X0189893Y0136903D01*
X0189893Y0136651D01*
X0187555Y0136651D01*
X0187555Y0136903D01*
X0194854Y0141612D02*
X0194854Y0143950D01*
X0194854Y0141612D02*
X0194602Y0141612D01*
X0194602Y0143950D01*
X0194854Y0143950D01*
X0194854Y0142619D02*
X0194602Y0142619D01*
X0194602Y0143626D02*
X0194854Y0143626D01*
X0196823Y0143950D02*
X0196823Y0141612D01*
X0196571Y0141612D01*
X0196571Y0143950D01*
X0196823Y0143950D01*
X0196823Y0142619D02*
X0196571Y0142619D01*
X0196571Y0143626D02*
X0196823Y0143626D01*
X0198791Y0143950D02*
X0198791Y0141612D01*
X0198539Y0141612D01*
X0198539Y0143950D01*
X0198791Y0143950D01*
X0198791Y0142619D02*
X0198539Y0142619D01*
X0198539Y0143626D02*
X0198791Y0143626D01*
X0200760Y0143950D02*
X0200760Y0141612D01*
X0200508Y0141612D01*
X0200508Y0143950D01*
X0200760Y0143950D01*
X0200760Y0142619D02*
X0200508Y0142619D01*
X0200508Y0143626D02*
X0200760Y0143626D01*
X0202728Y0143950D02*
X0202728Y0141612D01*
X0202476Y0141612D01*
X0202476Y0143950D01*
X0202728Y0143950D01*
X0202728Y0142619D02*
X0202476Y0142619D01*
X0202476Y0143626D02*
X0202728Y0143626D01*
X0204697Y0143950D02*
X0204697Y0141612D01*
X0204445Y0141612D01*
X0204445Y0143950D01*
X0204697Y0143950D01*
X0204697Y0142619D02*
X0204445Y0142619D01*
X0204445Y0143626D02*
X0204697Y0143626D01*
X0206665Y0143950D02*
X0206665Y0141612D01*
X0206413Y0141612D01*
X0206413Y0143950D01*
X0206665Y0143950D01*
X0206665Y0142619D02*
X0206413Y0142619D01*
X0206413Y0143626D02*
X0206665Y0143626D01*
X0208634Y0143950D02*
X0208634Y0141612D01*
X0208382Y0141612D01*
X0208382Y0143950D01*
X0208634Y0143950D01*
X0208634Y0142619D02*
X0208382Y0142619D01*
X0208382Y0143626D02*
X0208634Y0143626D01*
X0210602Y0143950D02*
X0210602Y0141612D01*
X0210350Y0141612D01*
X0210350Y0143950D01*
X0210602Y0143950D01*
X0210602Y0142619D02*
X0210350Y0142619D01*
X0210350Y0143626D02*
X0210602Y0143626D01*
X0212571Y0143950D02*
X0212571Y0141612D01*
X0212319Y0141612D01*
X0212319Y0143950D01*
X0212571Y0143950D01*
X0212571Y0142619D02*
X0212319Y0142619D01*
X0212319Y0143626D02*
X0212571Y0143626D01*
X0214539Y0143950D02*
X0214539Y0141612D01*
X0214287Y0141612D01*
X0214287Y0143950D01*
X0214539Y0143950D01*
X0214539Y0142619D02*
X0214287Y0142619D01*
X0214287Y0143626D02*
X0214539Y0143626D01*
X0216508Y0143950D02*
X0216508Y0141612D01*
X0216256Y0141612D01*
X0216256Y0143950D01*
X0216508Y0143950D01*
X0216508Y0142619D02*
X0216256Y0142619D01*
X0216256Y0143626D02*
X0216508Y0143626D01*
X0221217Y0136903D02*
X0223555Y0136903D01*
X0223555Y0136651D01*
X0221217Y0136651D01*
X0221217Y0136903D01*
X0221217Y0134934D02*
X0223555Y0134934D01*
X0223555Y0134682D01*
X0221217Y0134682D01*
X0221217Y0134934D01*
X0221217Y0132966D02*
X0223555Y0132966D01*
X0223555Y0132714D01*
X0221217Y0132714D01*
X0221217Y0132966D01*
X0221217Y0130997D02*
X0223555Y0130997D01*
X0223555Y0130745D01*
X0221217Y0130745D01*
X0221217Y0130997D01*
X0221217Y0129029D02*
X0223555Y0129029D01*
X0223555Y0128777D01*
X0221217Y0128777D01*
X0221217Y0129029D01*
X0221217Y0127060D02*
X0223555Y0127060D01*
X0223555Y0126808D01*
X0221217Y0126808D01*
X0221217Y0127060D01*
X0221217Y0125092D02*
X0223555Y0125092D01*
X0223555Y0124840D01*
X0221217Y0124840D01*
X0221217Y0125092D01*
X0221217Y0123123D02*
X0223555Y0123123D01*
X0223555Y0122871D01*
X0221217Y0122871D01*
X0221217Y0123123D01*
X0221217Y0121155D02*
X0223555Y0121155D01*
X0223555Y0120903D01*
X0221217Y0120903D01*
X0221217Y0121155D01*
X0221217Y0119186D02*
X0223555Y0119186D01*
X0223555Y0118934D01*
X0221217Y0118934D01*
X0221217Y0119186D01*
X0221217Y0117218D02*
X0223555Y0117218D01*
X0223555Y0116966D01*
X0221217Y0116966D01*
X0221217Y0117218D01*
X0221217Y0115249D02*
X0223555Y0115249D01*
X0223555Y0114997D01*
X0221217Y0114997D01*
X0221217Y0115249D01*
X0216508Y0110288D02*
X0216508Y0107950D01*
X0216256Y0107950D01*
X0216256Y0110288D01*
X0216508Y0110288D01*
X0216508Y0108957D02*
X0216256Y0108957D01*
X0216256Y0109964D02*
X0216508Y0109964D01*
X0214539Y0110288D02*
X0214539Y0107950D01*
X0214287Y0107950D01*
X0214287Y0110288D01*
X0214539Y0110288D01*
X0214539Y0108957D02*
X0214287Y0108957D01*
X0214287Y0109964D02*
X0214539Y0109964D01*
X0212571Y0110288D02*
X0212571Y0107950D01*
X0212319Y0107950D01*
X0212319Y0110288D01*
X0212571Y0110288D01*
X0212571Y0108957D02*
X0212319Y0108957D01*
X0212319Y0109964D02*
X0212571Y0109964D01*
X0210602Y0110288D02*
X0210602Y0107950D01*
X0210350Y0107950D01*
X0210350Y0110288D01*
X0210602Y0110288D01*
X0210602Y0108957D02*
X0210350Y0108957D01*
X0210350Y0109964D02*
X0210602Y0109964D01*
X0208634Y0110288D02*
X0208634Y0107950D01*
X0208382Y0107950D01*
X0208382Y0110288D01*
X0208634Y0110288D01*
X0208634Y0108957D02*
X0208382Y0108957D01*
X0208382Y0109964D02*
X0208634Y0109964D01*
X0206665Y0110288D02*
X0206665Y0107950D01*
X0206413Y0107950D01*
X0206413Y0110288D01*
X0206665Y0110288D01*
X0206665Y0108957D02*
X0206413Y0108957D01*
X0206413Y0109964D02*
X0206665Y0109964D01*
X0204697Y0110288D02*
X0204697Y0107950D01*
X0204445Y0107950D01*
X0204445Y0110288D01*
X0204697Y0110288D01*
X0204697Y0108957D02*
X0204445Y0108957D01*
X0204445Y0109964D02*
X0204697Y0109964D01*
X0202728Y0110288D02*
X0202728Y0107950D01*
X0202476Y0107950D01*
X0202476Y0110288D01*
X0202728Y0110288D01*
X0202728Y0108957D02*
X0202476Y0108957D01*
X0202476Y0109964D02*
X0202728Y0109964D01*
X0200760Y0110288D02*
X0200760Y0107950D01*
X0200508Y0107950D01*
X0200508Y0110288D01*
X0200760Y0110288D01*
X0200760Y0108957D02*
X0200508Y0108957D01*
X0200508Y0109964D02*
X0200760Y0109964D01*
X0198791Y0110288D02*
X0198791Y0107950D01*
X0198539Y0107950D01*
X0198539Y0110288D01*
X0198791Y0110288D01*
X0198791Y0108957D02*
X0198539Y0108957D01*
X0198539Y0109964D02*
X0198791Y0109964D01*
X0196823Y0110288D02*
X0196823Y0107950D01*
X0196571Y0107950D01*
X0196571Y0110288D01*
X0196823Y0110288D01*
X0196823Y0108957D02*
X0196571Y0108957D01*
X0196571Y0109964D02*
X0196823Y0109964D01*
X0194854Y0110288D02*
X0194854Y0107950D01*
X0194602Y0107950D01*
X0194602Y0110288D01*
X0194854Y0110288D01*
X0194854Y0108957D02*
X0194602Y0108957D01*
X0194602Y0109964D02*
X0194854Y0109964D01*
X0189893Y0115249D02*
X0187555Y0115249D01*
X0189893Y0115249D02*
X0189893Y0114997D01*
X0187555Y0114997D01*
X0187555Y0115249D01*
X0187555Y0117218D02*
X0189893Y0117218D01*
X0189893Y0116966D01*
X0187555Y0116966D01*
X0187555Y0117218D01*
X0187555Y0119186D02*
X0189893Y0119186D01*
X0189893Y0118934D01*
X0187555Y0118934D01*
X0187555Y0119186D01*
X0187555Y0121155D02*
X0189893Y0121155D01*
X0189893Y0120903D01*
X0187555Y0120903D01*
X0187555Y0121155D01*
X0187555Y0123123D02*
X0189893Y0123123D01*
X0189893Y0122871D01*
X0187555Y0122871D01*
X0187555Y0123123D01*
D20*
X0182151Y0117386D02*
X0179749Y0117386D01*
X0182151Y0117386D02*
X0182151Y0115180D01*
X0179749Y0115180D01*
X0179749Y0117386D01*
X0179749Y0115730D02*
X0182151Y0115730D01*
X0182151Y0116280D02*
X0179749Y0116280D01*
X0179749Y0116830D02*
X0182151Y0116830D01*
X0182151Y0117380D02*
X0179749Y0117380D01*
X0179749Y0113449D02*
X0182151Y0113449D01*
X0182151Y0111243D01*
X0179749Y0111243D01*
X0179749Y0113449D01*
X0179749Y0111793D02*
X0182151Y0111793D01*
X0182151Y0112343D02*
X0179749Y0112343D01*
X0179749Y0112893D02*
X0182151Y0112893D01*
X0182151Y0113443D02*
X0179749Y0113443D01*
X0202277Y0104826D02*
X0202277Y0102424D01*
X0202277Y0104826D02*
X0204483Y0104826D01*
X0204483Y0102424D01*
X0202277Y0102424D01*
X0202277Y0102974D02*
X0204483Y0102974D01*
X0204483Y0103524D02*
X0202277Y0103524D01*
X0202277Y0104074D02*
X0204483Y0104074D01*
X0204483Y0104624D02*
X0202277Y0104624D01*
X0206214Y0104826D02*
X0206214Y0102424D01*
X0206214Y0104826D02*
X0208420Y0104826D01*
X0208420Y0102424D01*
X0206214Y0102424D01*
X0206214Y0102974D02*
X0208420Y0102974D01*
X0208420Y0103524D02*
X0206214Y0103524D01*
X0206214Y0104074D02*
X0208420Y0104074D01*
X0208420Y0104624D02*
X0206214Y0104624D01*
X0206314Y0101116D02*
X0206314Y0098714D01*
X0206314Y0101116D02*
X0208520Y0101116D01*
X0208520Y0098714D01*
X0206314Y0098714D01*
X0206314Y0099264D02*
X0208520Y0099264D01*
X0208520Y0099814D02*
X0206314Y0099814D01*
X0206314Y0100364D02*
X0208520Y0100364D01*
X0208520Y0100914D02*
X0206314Y0100914D01*
X0202377Y0101116D02*
X0202377Y0098714D01*
X0202377Y0101116D02*
X0204583Y0101116D01*
X0204583Y0098714D01*
X0202377Y0098714D01*
X0202377Y0099264D02*
X0204583Y0099264D01*
X0204583Y0099814D02*
X0202377Y0099814D01*
X0202377Y0100364D02*
X0204583Y0100364D01*
X0204583Y0100914D02*
X0202377Y0100914D01*
X0200488Y0092727D02*
X0200488Y0090325D01*
X0200488Y0092727D02*
X0202694Y0092727D01*
X0202694Y0090325D01*
X0200488Y0090325D01*
X0200488Y0090875D02*
X0202694Y0090875D01*
X0202694Y0091425D02*
X0200488Y0091425D01*
X0200488Y0091975D02*
X0202694Y0091975D01*
X0202694Y0092525D02*
X0200488Y0092525D01*
X0200585Y0088932D02*
X0200585Y0086530D01*
X0200585Y0088932D02*
X0202791Y0088932D01*
X0202791Y0086530D01*
X0200585Y0086530D01*
X0200585Y0087080D02*
X0202791Y0087080D01*
X0202791Y0087630D02*
X0200585Y0087630D01*
X0200585Y0088180D02*
X0202791Y0088180D01*
X0202791Y0088730D02*
X0200585Y0088730D01*
X0204522Y0088932D02*
X0204522Y0086530D01*
X0204522Y0088932D02*
X0206728Y0088932D01*
X0206728Y0086530D01*
X0204522Y0086530D01*
X0204522Y0087080D02*
X0206728Y0087080D01*
X0206728Y0087630D02*
X0204522Y0087630D01*
X0204522Y0088180D02*
X0206728Y0088180D01*
X0206728Y0088730D02*
X0204522Y0088730D01*
X0204425Y0090325D02*
X0204425Y0092727D01*
X0206631Y0092727D01*
X0206631Y0090325D01*
X0204425Y0090325D01*
X0204425Y0090875D02*
X0206631Y0090875D01*
X0206631Y0091425D02*
X0204425Y0091425D01*
X0204425Y0091975D02*
X0206631Y0091975D01*
X0206631Y0092525D02*
X0204425Y0092525D01*
X0196231Y0092727D02*
X0196231Y0090325D01*
X0194025Y0090325D01*
X0194025Y0092727D01*
X0196231Y0092727D01*
X0196231Y0090875D02*
X0194025Y0090875D01*
X0194025Y0091425D02*
X0196231Y0091425D01*
X0196231Y0091975D02*
X0194025Y0091975D01*
X0194025Y0092525D02*
X0196231Y0092525D01*
X0192294Y0092727D02*
X0192294Y0090325D01*
X0190088Y0090325D01*
X0190088Y0092727D01*
X0192294Y0092727D01*
X0192294Y0090875D02*
X0190088Y0090875D01*
X0190088Y0091425D02*
X0192294Y0091425D01*
X0192294Y0091975D02*
X0190088Y0091975D01*
X0190088Y0092525D02*
X0192294Y0092525D01*
X0202694Y0085135D02*
X0202694Y0082733D01*
X0200488Y0082733D01*
X0200488Y0085135D01*
X0202694Y0085135D01*
X0202694Y0083283D02*
X0200488Y0083283D01*
X0200488Y0083833D02*
X0202694Y0083833D01*
X0202694Y0084383D02*
X0200488Y0084383D01*
X0200488Y0084933D02*
X0202694Y0084933D01*
X0206631Y0085135D02*
X0206631Y0082733D01*
X0204425Y0082733D01*
X0204425Y0085135D01*
X0206631Y0085135D01*
X0206631Y0083283D02*
X0204425Y0083283D01*
X0204425Y0083833D02*
X0206631Y0083833D01*
X0206631Y0084383D02*
X0204425Y0084383D01*
X0204425Y0084933D02*
X0206631Y0084933D01*
X0229894Y0105557D02*
X0229894Y0107959D01*
X0229894Y0105557D02*
X0227688Y0105557D01*
X0227688Y0107959D01*
X0229894Y0107959D01*
X0229894Y0106107D02*
X0227688Y0106107D01*
X0227688Y0106657D02*
X0229894Y0106657D01*
X0229894Y0107207D02*
X0227688Y0107207D01*
X0227688Y0107757D02*
X0229894Y0107757D01*
X0229994Y0109357D02*
X0229994Y0111759D01*
X0229994Y0109357D02*
X0227788Y0109357D01*
X0227788Y0111759D01*
X0229994Y0111759D01*
X0229994Y0109907D02*
X0227788Y0109907D01*
X0227788Y0110457D02*
X0229994Y0110457D01*
X0229994Y0111007D02*
X0227788Y0111007D01*
X0227788Y0111557D02*
X0229994Y0111557D01*
X0233931Y0111759D02*
X0233931Y0109357D01*
X0231725Y0109357D01*
X0231725Y0111759D01*
X0233931Y0111759D01*
X0233931Y0109907D02*
X0231725Y0109907D01*
X0231725Y0110457D02*
X0233931Y0110457D01*
X0233931Y0111007D02*
X0231725Y0111007D01*
X0231725Y0111557D02*
X0233931Y0111557D01*
X0237059Y0109116D02*
X0239461Y0109116D01*
X0237059Y0109116D02*
X0237059Y0111322D01*
X0239461Y0111322D01*
X0239461Y0109116D01*
X0239461Y0109666D02*
X0237059Y0109666D01*
X0237059Y0110216D02*
X0239461Y0110216D01*
X0239461Y0110766D02*
X0237059Y0110766D01*
X0237059Y0111316D02*
X0239461Y0111316D01*
X0239461Y0105178D02*
X0237059Y0105178D01*
X0237059Y0107384D01*
X0239461Y0107384D01*
X0239461Y0105178D01*
X0239461Y0105728D02*
X0237059Y0105728D01*
X0237059Y0106278D02*
X0239461Y0106278D01*
X0239461Y0106828D02*
X0237059Y0106828D01*
X0237059Y0107378D02*
X0239461Y0107378D01*
X0233831Y0107959D02*
X0233831Y0105557D01*
X0231625Y0105557D01*
X0231625Y0107959D01*
X0233831Y0107959D01*
X0233831Y0106107D02*
X0231625Y0106107D01*
X0231625Y0106657D02*
X0233831Y0106657D01*
X0233831Y0107207D02*
X0231625Y0107207D01*
X0231625Y0107757D02*
X0233831Y0107757D01*
X0235531Y0115952D02*
X0235531Y0118354D01*
X0235531Y0115952D02*
X0233325Y0115952D01*
X0233325Y0118354D01*
X0235531Y0118354D01*
X0235531Y0116502D02*
X0233325Y0116502D01*
X0233325Y0117052D02*
X0235531Y0117052D01*
X0235531Y0117602D02*
X0233325Y0117602D01*
X0233325Y0118152D02*
X0235531Y0118152D01*
X0231594Y0118354D02*
X0231594Y0115952D01*
X0229388Y0115952D01*
X0229388Y0118354D01*
X0231594Y0118354D01*
X0231594Y0116502D02*
X0229388Y0116502D01*
X0229388Y0117052D02*
X0231594Y0117052D01*
X0231594Y0117602D02*
X0229388Y0117602D01*
X0229388Y0118152D02*
X0231594Y0118152D01*
X0232359Y0120885D02*
X0234761Y0120885D01*
X0232359Y0120885D02*
X0232359Y0123091D01*
X0234761Y0123091D01*
X0234761Y0120885D01*
X0234761Y0121435D02*
X0232359Y0121435D01*
X0232359Y0121985D02*
X0234761Y0121985D01*
X0234761Y0122535D02*
X0232359Y0122535D01*
X0232359Y0123085D02*
X0234761Y0123085D01*
X0234761Y0124822D02*
X0232359Y0124822D01*
X0232359Y0127028D01*
X0234761Y0127028D01*
X0234761Y0124822D01*
X0234761Y0125372D02*
X0232359Y0125372D01*
X0232359Y0125922D02*
X0234761Y0125922D01*
X0234761Y0126472D02*
X0232359Y0126472D01*
X0232359Y0127022D02*
X0234761Y0127022D01*
X0210431Y0147640D02*
X0210431Y0150042D01*
X0210431Y0147640D02*
X0208225Y0147640D01*
X0208225Y0150042D01*
X0210431Y0150042D01*
X0210431Y0148190D02*
X0208225Y0148190D01*
X0208225Y0148740D02*
X0210431Y0148740D01*
X0210431Y0149290D02*
X0208225Y0149290D01*
X0208225Y0149840D02*
X0210431Y0149840D01*
X0206494Y0150042D02*
X0206494Y0147640D01*
X0204288Y0147640D01*
X0204288Y0150042D01*
X0206494Y0150042D01*
X0206494Y0148190D02*
X0204288Y0148190D01*
X0204288Y0148740D02*
X0206494Y0148740D01*
X0206494Y0149290D02*
X0204288Y0149290D01*
X0204288Y0149840D02*
X0206494Y0149840D01*
X0130231Y0168549D02*
X0130231Y0170951D01*
X0130231Y0168549D02*
X0128025Y0168549D01*
X0128025Y0170951D01*
X0130231Y0170951D01*
X0130231Y0169099D02*
X0128025Y0169099D01*
X0128025Y0169649D02*
X0130231Y0169649D01*
X0130231Y0170199D02*
X0128025Y0170199D01*
X0128025Y0170749D02*
X0130231Y0170749D01*
X0130331Y0172349D02*
X0130331Y0174751D01*
X0130331Y0172349D02*
X0128125Y0172349D01*
X0128125Y0174751D01*
X0130331Y0174751D01*
X0130331Y0172899D02*
X0128125Y0172899D01*
X0128125Y0173449D02*
X0130331Y0173449D01*
X0130331Y0173999D02*
X0128125Y0173999D01*
X0128125Y0174549D02*
X0130331Y0174549D01*
X0126394Y0174751D02*
X0126394Y0172349D01*
X0124188Y0172349D01*
X0124188Y0174751D01*
X0126394Y0174751D01*
X0126394Y0172899D02*
X0124188Y0172899D01*
X0124188Y0173449D02*
X0126394Y0173449D01*
X0126394Y0173999D02*
X0124188Y0173999D01*
X0124188Y0174549D02*
X0126394Y0174549D01*
X0126294Y0170951D02*
X0126294Y0168549D01*
X0124088Y0168549D01*
X0124088Y0170951D01*
X0126294Y0170951D01*
X0126294Y0169099D02*
X0124088Y0169099D01*
X0124088Y0169649D02*
X0126294Y0169649D01*
X0126294Y0170199D02*
X0124088Y0170199D01*
X0124088Y0170749D02*
X0126294Y0170749D01*
X0092925Y0151151D02*
X0092925Y0148749D01*
X0092925Y0151151D02*
X0095131Y0151151D01*
X0095131Y0148749D01*
X0092925Y0148749D01*
X0092925Y0149299D02*
X0095131Y0149299D01*
X0095131Y0149849D02*
X0092925Y0149849D01*
X0092925Y0150399D02*
X0095131Y0150399D01*
X0095131Y0150949D02*
X0092925Y0150949D01*
X0088988Y0151151D02*
X0088988Y0148749D01*
X0088988Y0151151D02*
X0091194Y0151151D01*
X0091194Y0148749D01*
X0088988Y0148749D01*
X0088988Y0149299D02*
X0091194Y0149299D01*
X0091194Y0149849D02*
X0088988Y0149849D01*
X0088988Y0150399D02*
X0091194Y0150399D01*
X0091194Y0150949D02*
X0088988Y0150949D01*
X0091194Y0147451D02*
X0091194Y0145049D01*
X0088988Y0145049D01*
X0088988Y0147451D01*
X0091194Y0147451D01*
X0091194Y0145599D02*
X0088988Y0145599D01*
X0088988Y0146149D02*
X0091194Y0146149D01*
X0091194Y0146699D02*
X0088988Y0146699D01*
X0088988Y0147249D02*
X0091194Y0147249D01*
X0095131Y0147451D02*
X0095131Y0145049D01*
X0092925Y0145049D01*
X0092925Y0147451D01*
X0095131Y0147451D01*
X0095131Y0145599D02*
X0092925Y0145599D01*
X0092925Y0146149D02*
X0095131Y0146149D01*
X0095131Y0146699D02*
X0092925Y0146699D01*
X0092925Y0147249D02*
X0095131Y0147249D01*
X0071325Y0131651D02*
X0071325Y0129249D01*
X0071325Y0131651D02*
X0073531Y0131651D01*
X0073531Y0129249D01*
X0071325Y0129249D01*
X0071325Y0129799D02*
X0073531Y0129799D01*
X0073531Y0130349D02*
X0071325Y0130349D01*
X0071325Y0130899D02*
X0073531Y0130899D01*
X0073531Y0131449D02*
X0071325Y0131449D01*
X0067388Y0131651D02*
X0067388Y0129249D01*
X0067388Y0131651D02*
X0069594Y0131651D01*
X0069594Y0129249D01*
X0067388Y0129249D01*
X0067388Y0129799D02*
X0069594Y0129799D01*
X0069594Y0130349D02*
X0067388Y0130349D01*
X0067388Y0130899D02*
X0069594Y0130899D01*
X0069594Y0131449D02*
X0067388Y0131449D01*
X0067274Y0124949D02*
X0067274Y0122547D01*
X0067274Y0124949D02*
X0069480Y0124949D01*
X0069480Y0122547D01*
X0067274Y0122547D01*
X0067274Y0123097D02*
X0069480Y0123097D01*
X0069480Y0123647D02*
X0067274Y0123647D01*
X0067274Y0124197D02*
X0069480Y0124197D01*
X0069480Y0124747D02*
X0067274Y0124747D01*
X0071211Y0124949D02*
X0071211Y0122547D01*
X0071211Y0124949D02*
X0073417Y0124949D01*
X0073417Y0122547D01*
X0071211Y0122547D01*
X0071211Y0123097D02*
X0073417Y0123097D01*
X0073417Y0123647D02*
X0071211Y0123647D01*
X0071211Y0124197D02*
X0073417Y0124197D01*
X0073417Y0124747D02*
X0071211Y0124747D01*
X0055925Y0142949D02*
X0055925Y0145351D01*
X0058131Y0145351D01*
X0058131Y0142949D01*
X0055925Y0142949D01*
X0055925Y0143499D02*
X0058131Y0143499D01*
X0058131Y0144049D02*
X0055925Y0144049D01*
X0055925Y0144599D02*
X0058131Y0144599D01*
X0058131Y0145149D02*
X0055925Y0145149D01*
X0051988Y0145351D02*
X0051988Y0142949D01*
X0051988Y0145351D02*
X0054194Y0145351D01*
X0054194Y0142949D01*
X0051988Y0142949D01*
X0051988Y0143499D02*
X0054194Y0143499D01*
X0054194Y0144049D02*
X0051988Y0144049D01*
X0051988Y0144599D02*
X0054194Y0144599D01*
X0054194Y0145149D02*
X0051988Y0145149D01*
X0060559Y0144278D02*
X0062961Y0144278D01*
X0060559Y0144278D02*
X0060559Y0146484D01*
X0062961Y0146484D01*
X0062961Y0144278D01*
X0062961Y0144828D02*
X0060559Y0144828D01*
X0060559Y0145378D02*
X0062961Y0145378D01*
X0062961Y0145928D02*
X0060559Y0145928D01*
X0060559Y0146478D02*
X0062961Y0146478D01*
X0062961Y0148216D02*
X0060559Y0148216D01*
X0060559Y0150422D01*
X0062961Y0150422D01*
X0062961Y0148216D01*
X0062961Y0148766D02*
X0060559Y0148766D01*
X0060559Y0149316D02*
X0062961Y0149316D01*
X0062961Y0149866D02*
X0060559Y0149866D01*
X0060559Y0150416D02*
X0062961Y0150416D01*
X0029131Y0175649D02*
X0029131Y0178051D01*
X0029131Y0175649D02*
X0026925Y0175649D01*
X0026925Y0178051D01*
X0029131Y0178051D01*
X0029131Y0176199D02*
X0026925Y0176199D01*
X0026925Y0176749D02*
X0029131Y0176749D01*
X0029131Y0177299D02*
X0026925Y0177299D01*
X0026925Y0177849D02*
X0029131Y0177849D01*
X0029031Y0180549D02*
X0029031Y0182951D01*
X0029031Y0180549D02*
X0026825Y0180549D01*
X0026825Y0182951D01*
X0029031Y0182951D01*
X0029031Y0181099D02*
X0026825Y0181099D01*
X0026825Y0181649D02*
X0029031Y0181649D01*
X0029031Y0182199D02*
X0026825Y0182199D01*
X0026825Y0182749D02*
X0029031Y0182749D01*
X0025094Y0182951D02*
X0025094Y0180549D01*
X0022888Y0180549D01*
X0022888Y0182951D01*
X0025094Y0182951D01*
X0025094Y0181099D02*
X0022888Y0181099D01*
X0022888Y0181649D02*
X0025094Y0181649D01*
X0025094Y0182199D02*
X0022888Y0182199D01*
X0022888Y0182749D02*
X0025094Y0182749D01*
X0020661Y0180616D02*
X0018259Y0180616D01*
X0018259Y0182822D01*
X0020661Y0182822D01*
X0020661Y0180616D01*
X0020661Y0181166D02*
X0018259Y0181166D01*
X0018259Y0181716D02*
X0020661Y0181716D01*
X0020661Y0182266D02*
X0018259Y0182266D01*
X0018259Y0182816D02*
X0020661Y0182816D01*
X0020661Y0176678D02*
X0018259Y0176678D01*
X0018259Y0178884D01*
X0020661Y0178884D01*
X0020661Y0176678D01*
X0020661Y0177228D02*
X0018259Y0177228D01*
X0018259Y0177778D02*
X0020661Y0177778D01*
X0020661Y0178328D02*
X0018259Y0178328D01*
X0018259Y0178878D02*
X0020661Y0178878D01*
X0025194Y0178051D02*
X0025194Y0175649D01*
X0022988Y0175649D01*
X0022988Y0178051D01*
X0025194Y0178051D01*
X0025194Y0176199D02*
X0022988Y0176199D01*
X0022988Y0176749D02*
X0025194Y0176749D01*
X0025194Y0177299D02*
X0022988Y0177299D01*
X0022988Y0177849D02*
X0025194Y0177849D01*
X0015410Y0176644D02*
X0013008Y0176644D01*
X0013008Y0178850D01*
X0015410Y0178850D01*
X0015410Y0176644D01*
X0015410Y0177194D02*
X0013008Y0177194D01*
X0013008Y0177744D02*
X0015410Y0177744D01*
X0015410Y0178294D02*
X0013008Y0178294D01*
X0013008Y0178844D02*
X0015410Y0178844D01*
X0015410Y0180581D02*
X0013008Y0180581D01*
X0013008Y0182787D01*
X0015410Y0182787D01*
X0015410Y0180581D01*
X0015410Y0181131D02*
X0013008Y0181131D01*
X0013008Y0181681D02*
X0015410Y0181681D01*
X0015410Y0182231D02*
X0013008Y0182231D01*
X0013008Y0182781D02*
X0015410Y0182781D01*
X0055959Y0190584D02*
X0058361Y0190584D01*
X0058361Y0188378D01*
X0055959Y0188378D01*
X0055959Y0190584D01*
X0055959Y0188928D02*
X0058361Y0188928D01*
X0058361Y0189478D02*
X0055959Y0189478D01*
X0055959Y0190028D02*
X0058361Y0190028D01*
X0058361Y0190578D02*
X0055959Y0190578D01*
X0055959Y0194522D02*
X0058361Y0194522D01*
X0058361Y0192316D01*
X0055959Y0192316D01*
X0055959Y0194522D01*
X0055959Y0192866D02*
X0058361Y0192866D01*
X0058361Y0193416D02*
X0055959Y0193416D01*
X0055959Y0193966D02*
X0058361Y0193966D01*
X0058361Y0194516D02*
X0055959Y0194516D01*
X0060759Y0192216D02*
X0063161Y0192216D01*
X0060759Y0192216D02*
X0060759Y0194422D01*
X0063161Y0194422D01*
X0063161Y0192216D01*
X0063161Y0192766D02*
X0060759Y0192766D01*
X0060759Y0193316D02*
X0063161Y0193316D01*
X0063161Y0193866D02*
X0060759Y0193866D01*
X0060759Y0194416D02*
X0063161Y0194416D01*
X0063161Y0188278D02*
X0060759Y0188278D01*
X0060759Y0190484D01*
X0063161Y0190484D01*
X0063161Y0188278D01*
X0063161Y0188828D02*
X0060759Y0188828D01*
X0060759Y0189378D02*
X0063161Y0189378D01*
X0063161Y0189928D02*
X0060759Y0189928D01*
X0060759Y0190478D02*
X0063161Y0190478D01*
X0058361Y0204184D02*
X0055959Y0204184D01*
X0058361Y0204184D02*
X0058361Y0201978D01*
X0055959Y0201978D01*
X0055959Y0204184D01*
X0055959Y0202528D02*
X0058361Y0202528D01*
X0058361Y0203078D02*
X0055959Y0203078D01*
X0055959Y0203628D02*
X0058361Y0203628D01*
X0058361Y0204178D02*
X0055959Y0204178D01*
X0055959Y0208122D02*
X0058361Y0208122D01*
X0058361Y0205916D01*
X0055959Y0205916D01*
X0055959Y0208122D01*
X0055959Y0206466D02*
X0058361Y0206466D01*
X0058361Y0207016D02*
X0055959Y0207016D01*
X0055959Y0207566D02*
X0058361Y0207566D01*
X0058361Y0208116D02*
X0055959Y0208116D01*
X0034561Y0062116D02*
X0032159Y0062116D01*
X0032159Y0064322D01*
X0034561Y0064322D01*
X0034561Y0062116D01*
X0034561Y0062666D02*
X0032159Y0062666D01*
X0032159Y0063216D02*
X0034561Y0063216D01*
X0034561Y0063766D02*
X0032159Y0063766D01*
X0032159Y0064316D02*
X0034561Y0064316D01*
X0034561Y0058178D02*
X0032159Y0058178D01*
X0032159Y0060384D01*
X0034561Y0060384D01*
X0034561Y0058178D01*
X0034561Y0058728D02*
X0032159Y0058728D01*
X0032159Y0059278D02*
X0034561Y0059278D01*
X0034561Y0059828D02*
X0032159Y0059828D01*
X0032159Y0060378D02*
X0034561Y0060378D01*
X0029761Y0060484D02*
X0027359Y0060484D01*
X0029761Y0060484D02*
X0029761Y0058278D01*
X0027359Y0058278D01*
X0027359Y0060484D01*
X0027359Y0058828D02*
X0029761Y0058828D01*
X0029761Y0059378D02*
X0027359Y0059378D01*
X0027359Y0059928D02*
X0029761Y0059928D01*
X0029761Y0060478D02*
X0027359Y0060478D01*
X0027359Y0064422D02*
X0029761Y0064422D01*
X0029761Y0062216D01*
X0027359Y0062216D01*
X0027359Y0064422D01*
X0027359Y0062766D02*
X0029761Y0062766D01*
X0029761Y0063316D02*
X0027359Y0063316D01*
X0027359Y0063866D02*
X0029761Y0063866D01*
X0029761Y0064416D02*
X0027359Y0064416D01*
D21*
X0236876Y0091207D03*
X0236876Y0101207D03*
D22*
X0214376Y0096207D03*
D23*
X0061394Y0123450D03*
X0061394Y0130450D03*
X0061394Y0137450D03*
X0053126Y0137450D03*
X0053126Y0130450D03*
X0053126Y0123450D03*
D24*
X0261760Y0084616D03*
D25*
X0266760Y0084616D03*
X0266760Y0079616D03*
X0266760Y0074616D03*
X0266760Y0069616D03*
X0261760Y0069616D03*
X0261760Y0074616D03*
X0261760Y0079616D03*
X0261760Y0064616D03*
X0266760Y0064616D03*
D26*
X0201172Y0074782D02*
X0196854Y0074782D01*
X0201172Y0074782D02*
X0201172Y0066464D01*
X0196854Y0066464D01*
X0196854Y0074782D01*
X0196854Y0066943D02*
X0201172Y0066943D01*
X0201172Y0067422D02*
X0196854Y0067422D01*
X0196854Y0067901D02*
X0201172Y0067901D01*
X0201172Y0068380D02*
X0196854Y0068380D01*
X0196854Y0068859D02*
X0201172Y0068859D01*
X0201172Y0069338D02*
X0196854Y0069338D01*
X0196854Y0069817D02*
X0201172Y0069817D01*
X0201172Y0070296D02*
X0196854Y0070296D01*
X0196854Y0070775D02*
X0201172Y0070775D01*
X0201172Y0071254D02*
X0196854Y0071254D01*
X0196854Y0071733D02*
X0201172Y0071733D01*
X0201172Y0072212D02*
X0196854Y0072212D01*
X0196854Y0072691D02*
X0201172Y0072691D01*
X0201172Y0073170D02*
X0196854Y0073170D01*
X0196854Y0073649D02*
X0201172Y0073649D01*
X0201172Y0074128D02*
X0196854Y0074128D01*
X0196854Y0074607D02*
X0201172Y0074607D01*
X0192074Y0074782D02*
X0187756Y0074782D01*
X0192074Y0074782D02*
X0192074Y0066464D01*
X0187756Y0066464D01*
X0187756Y0074782D01*
X0187756Y0066943D02*
X0192074Y0066943D01*
X0192074Y0067422D02*
X0187756Y0067422D01*
X0187756Y0067901D02*
X0192074Y0067901D01*
X0192074Y0068380D02*
X0187756Y0068380D01*
X0187756Y0068859D02*
X0192074Y0068859D01*
X0192074Y0069338D02*
X0187756Y0069338D01*
X0187756Y0069817D02*
X0192074Y0069817D01*
X0192074Y0070296D02*
X0187756Y0070296D01*
X0187756Y0070775D02*
X0192074Y0070775D01*
X0192074Y0071254D02*
X0187756Y0071254D01*
X0187756Y0071733D02*
X0192074Y0071733D01*
X0192074Y0072212D02*
X0187756Y0072212D01*
X0187756Y0072691D02*
X0192074Y0072691D01*
X0192074Y0073170D02*
X0187756Y0073170D01*
X0187756Y0073649D02*
X0192074Y0073649D01*
X0192074Y0074128D02*
X0187756Y0074128D01*
X0187756Y0074607D02*
X0192074Y0074607D01*
X0182976Y0074782D02*
X0178658Y0074782D01*
X0182976Y0074782D02*
X0182976Y0066464D01*
X0178658Y0066464D01*
X0178658Y0074782D01*
X0178658Y0066943D02*
X0182976Y0066943D01*
X0182976Y0067422D02*
X0178658Y0067422D01*
X0178658Y0067901D02*
X0182976Y0067901D01*
X0182976Y0068380D02*
X0178658Y0068380D01*
X0178658Y0068859D02*
X0182976Y0068859D01*
X0182976Y0069338D02*
X0178658Y0069338D01*
X0178658Y0069817D02*
X0182976Y0069817D01*
X0182976Y0070296D02*
X0178658Y0070296D01*
X0178658Y0070775D02*
X0182976Y0070775D01*
X0182976Y0071254D02*
X0178658Y0071254D01*
X0178658Y0071733D02*
X0182976Y0071733D01*
X0182976Y0072212D02*
X0178658Y0072212D01*
X0178658Y0072691D02*
X0182976Y0072691D01*
X0182976Y0073170D02*
X0178658Y0073170D01*
X0178658Y0073649D02*
X0182976Y0073649D01*
X0182976Y0074128D02*
X0178658Y0074128D01*
X0178658Y0074607D02*
X0182976Y0074607D01*
D27*
X0183262Y0050119D02*
X0196568Y0050119D01*
X0196568Y0042325D01*
X0183262Y0042325D01*
X0183262Y0050119D01*
X0183262Y0043190D02*
X0196568Y0043190D01*
X0196568Y0044055D02*
X0183262Y0044055D01*
X0183262Y0044920D02*
X0196568Y0044920D01*
X0196568Y0045785D02*
X0183262Y0045785D01*
X0183262Y0046650D02*
X0196568Y0046650D01*
X0196568Y0047515D02*
X0183262Y0047515D01*
X0183262Y0048380D02*
X0196568Y0048380D01*
X0196568Y0049245D02*
X0183262Y0049245D01*
X0183262Y0050110D02*
X0196568Y0050110D01*
D28*
X0222764Y0050537D03*
X0222764Y0069435D03*
D29*
X0249660Y0149650D03*
X0249660Y0155650D03*
D30*
X0249660Y0152650D03*
D31*
X0021689Y0153041D02*
X0021689Y0154459D01*
X0027831Y0154459D01*
X0027831Y0153041D01*
X0021689Y0153041D01*
X0021689Y0153197D02*
X0027831Y0153197D01*
X0027831Y0153353D02*
X0021689Y0153353D01*
X0021689Y0153509D02*
X0027831Y0153509D01*
X0027831Y0153665D02*
X0021689Y0153665D01*
X0021689Y0153821D02*
X0027831Y0153821D01*
X0027831Y0153977D02*
X0021689Y0153977D01*
X0021689Y0154133D02*
X0027831Y0154133D01*
X0027831Y0154289D02*
X0021689Y0154289D01*
X0021689Y0154445D02*
X0027831Y0154445D01*
X0021689Y0155600D02*
X0021689Y0157018D01*
X0027831Y0157018D01*
X0027831Y0155600D01*
X0021689Y0155600D01*
X0021689Y0155756D02*
X0027831Y0155756D01*
X0027831Y0155912D02*
X0021689Y0155912D01*
X0021689Y0156068D02*
X0027831Y0156068D01*
X0027831Y0156224D02*
X0021689Y0156224D01*
X0021689Y0156380D02*
X0027831Y0156380D01*
X0027831Y0156536D02*
X0021689Y0156536D01*
X0021689Y0156692D02*
X0027831Y0156692D01*
X0027831Y0156848D02*
X0021689Y0156848D01*
X0021689Y0157004D02*
X0027831Y0157004D01*
X0021689Y0158159D02*
X0021689Y0159577D01*
X0027831Y0159577D01*
X0027831Y0158159D01*
X0021689Y0158159D01*
X0021689Y0158315D02*
X0027831Y0158315D01*
X0027831Y0158471D02*
X0021689Y0158471D01*
X0021689Y0158627D02*
X0027831Y0158627D01*
X0027831Y0158783D02*
X0021689Y0158783D01*
X0021689Y0158939D02*
X0027831Y0158939D01*
X0027831Y0159095D02*
X0021689Y0159095D01*
X0021689Y0159251D02*
X0027831Y0159251D01*
X0027831Y0159407D02*
X0021689Y0159407D01*
X0021689Y0159563D02*
X0027831Y0159563D01*
X0021689Y0151900D02*
X0021689Y0150482D01*
X0021689Y0151900D02*
X0027831Y0151900D01*
X0027831Y0150482D01*
X0021689Y0150482D01*
X0021689Y0150638D02*
X0027831Y0150638D01*
X0027831Y0150794D02*
X0021689Y0150794D01*
X0021689Y0150950D02*
X0027831Y0150950D01*
X0027831Y0151106D02*
X0021689Y0151106D01*
X0021689Y0151262D02*
X0027831Y0151262D01*
X0027831Y0151418D02*
X0021689Y0151418D01*
X0021689Y0151574D02*
X0027831Y0151574D01*
X0027831Y0151730D02*
X0021689Y0151730D01*
X0021689Y0151886D02*
X0027831Y0151886D01*
X0021689Y0149341D02*
X0021689Y0147923D01*
X0021689Y0149341D02*
X0027831Y0149341D01*
X0027831Y0147923D01*
X0021689Y0147923D01*
X0021689Y0148079D02*
X0027831Y0148079D01*
X0027831Y0148235D02*
X0021689Y0148235D01*
X0021689Y0148391D02*
X0027831Y0148391D01*
X0027831Y0148547D02*
X0021689Y0148547D01*
X0021689Y0148703D02*
X0027831Y0148703D01*
X0027831Y0148859D02*
X0021689Y0148859D01*
X0021689Y0149015D02*
X0027831Y0149015D01*
X0027831Y0149171D02*
X0021689Y0149171D01*
X0021689Y0149327D02*
X0027831Y0149327D01*
D32*
X0014720Y0158474D03*
X0014720Y0170089D03*
D33*
X0024760Y0165955D03*
X0024760Y0141545D03*
D34*
X0044039Y0150474D03*
X0044039Y0159136D03*
X0036559Y0159136D03*
D35*
X0037346Y0150474D03*
D36*
X0039119Y0178129D03*
X0057229Y0178129D03*
D37*
X0099484Y0023525D02*
X0104406Y0023525D01*
X0104406Y0019589D01*
X0099484Y0019589D01*
X0099484Y0023525D01*
X0099484Y0020572D02*
X0104406Y0020572D01*
X0104406Y0021555D02*
X0099484Y0021555D01*
X0099484Y0022538D02*
X0104406Y0022538D01*
X0104406Y0023521D02*
X0099484Y0023521D01*
X0099484Y0016045D02*
X0104406Y0016045D01*
X0104406Y0012109D01*
X0099484Y0012109D01*
X0099484Y0016045D01*
X0099484Y0013092D02*
X0104406Y0013092D01*
X0104406Y0014075D02*
X0099484Y0014075D01*
X0099484Y0015058D02*
X0104406Y0015058D01*
X0104406Y0016041D02*
X0099484Y0016041D01*
D38*
X0089346Y0018014D03*
X0075961Y0018014D03*
D39*
X0053008Y0187127D02*
X0047536Y0187127D01*
X0047536Y0191813D01*
X0053008Y0191813D01*
X0053008Y0187127D01*
X0053008Y0187953D02*
X0047536Y0187953D01*
X0047536Y0188779D02*
X0053008Y0188779D01*
X0053008Y0189605D02*
X0047536Y0189605D01*
X0047536Y0190431D02*
X0053008Y0190431D01*
X0053008Y0191257D02*
X0047536Y0191257D01*
X0047536Y0204844D02*
X0053008Y0204844D01*
X0047536Y0204844D02*
X0047536Y0209530D01*
X0053008Y0209530D01*
X0053008Y0204844D01*
X0053008Y0205670D02*
X0047536Y0205670D01*
X0047536Y0206496D02*
X0053008Y0206496D01*
X0053008Y0207322D02*
X0047536Y0207322D01*
X0047536Y0208148D02*
X0053008Y0208148D01*
X0053008Y0208974D02*
X0047536Y0208974D01*
X0019937Y0204844D02*
X0014465Y0204844D01*
X0014465Y0209530D01*
X0019937Y0209530D01*
X0019937Y0204844D01*
X0019937Y0205670D02*
X0014465Y0205670D01*
X0014465Y0206496D02*
X0019937Y0206496D01*
X0019937Y0207322D02*
X0014465Y0207322D01*
X0014465Y0208148D02*
X0019937Y0208148D01*
X0019937Y0208974D02*
X0014465Y0208974D01*
X0014465Y0187127D02*
X0019937Y0187127D01*
X0014465Y0187127D02*
X0014465Y0191813D01*
X0019937Y0191813D01*
X0019937Y0187127D01*
X0019937Y0187953D02*
X0014465Y0187953D01*
X0014465Y0188779D02*
X0019937Y0188779D01*
X0019937Y0189605D02*
X0014465Y0189605D01*
X0014465Y0190431D02*
X0019937Y0190431D01*
X0019937Y0191257D02*
X0014465Y0191257D01*
M02*
