G75*
%MOIN*%
%OFA0B0*%
%FSLAX25Y25*%
%IPPOS*%
%LPD*%
%AMOC8*
5,1,8,0,0,1.08239X$1,22.5*
%
%ADD10C,0.12598*%
%ADD11OC8,0.06102*%
%ADD12C,0.05600*%
%ADD13OC8,0.15748*%
%ADD14R,0.15748X0.15748*%
%ADD15C,0.07677*%
%ADD16R,0.04000X0.04000*%
%ADD17C,0.04000*%
D10*
X0063760Y0013750D03*
X0268760Y0033750D03*
X0268760Y0143750D03*
X0068760Y0203750D03*
D11*
X0259260Y0123750D03*
X0269260Y0123750D03*
X0269260Y0113750D03*
X0259260Y0113750D03*
X0259260Y0103750D03*
X0269260Y0103750D03*
D12*
X0258760Y0016550D02*
X0258760Y0010950D01*
X0248760Y0010950D02*
X0248760Y0016550D01*
X0238760Y0016550D02*
X0238760Y0010950D01*
X0228760Y0010950D02*
X0228760Y0016550D01*
X0218760Y0016550D02*
X0218760Y0010950D01*
X0208760Y0010950D02*
X0208760Y0016550D01*
X0188760Y0016550D02*
X0188760Y0010950D01*
X0178760Y0010950D02*
X0178760Y0016550D01*
X0168760Y0016550D02*
X0168760Y0010950D01*
X0158760Y0010950D02*
X0158760Y0016550D01*
X0148760Y0016550D02*
X0148760Y0010950D01*
X0138760Y0010950D02*
X0138760Y0016550D01*
X0128760Y0016550D02*
X0128760Y0010950D01*
X0118760Y0010950D02*
X0118760Y0016550D01*
X0122760Y0200950D02*
X0122760Y0206550D01*
X0112760Y0206550D02*
X0112760Y0200950D01*
X0102760Y0200950D02*
X0102760Y0206550D01*
X0092760Y0206550D02*
X0092760Y0200950D01*
X0082760Y0200950D02*
X0082760Y0206550D01*
X0132760Y0206550D02*
X0132760Y0200950D01*
X0142760Y0200950D02*
X0142760Y0206550D01*
X0152760Y0206550D02*
X0152760Y0200950D01*
X0162760Y0200950D02*
X0162760Y0206550D01*
X0172760Y0206550D02*
X0172760Y0200950D01*
X0188760Y0200950D02*
X0188760Y0206550D01*
X0198760Y0206550D02*
X0198760Y0200950D01*
X0208760Y0200950D02*
X0208760Y0206550D01*
X0218760Y0206550D02*
X0218760Y0200950D01*
X0228760Y0200950D02*
X0228760Y0206550D01*
X0238760Y0206550D02*
X0238760Y0200950D01*
X0248760Y0200950D02*
X0248760Y0206550D01*
X0258760Y0206550D02*
X0258760Y0200950D01*
D13*
X0054760Y0036450D03*
X0042960Y0016750D03*
D14*
X0031160Y0036450D03*
D15*
X0039960Y0016750D03*
X0045960Y0016750D03*
X0054760Y0033450D03*
X0054760Y0039450D03*
X0031160Y0039450D03*
X0031160Y0033450D03*
D16*
X0261760Y0084616D03*
D17*
X0266760Y0084616D03*
X0266760Y0079616D03*
X0266760Y0074616D03*
X0266760Y0069616D03*
X0261760Y0069616D03*
X0261760Y0074616D03*
X0261760Y0079616D03*
X0261760Y0064616D03*
X0266760Y0064616D03*
M02*
